<svg xmlns="http://www.w3.org/2000/svg" viewBox="0 0 309.24 47.43"><defs><style>.cls-1{fill:#fff;}</style></defs><g id="레이어_2" data-name="레이어 2"><g id="레이어_1-2" data-name="레이어 1"><path class="cls-1" d="M27.46,21a72.09,72.09,0,0,1-7.34,1.14,89.11,89.11,0,0,1-9.82.62c-.78,0-2.92.06-4.94.06h-4c-1.09,0-1.4-.37-1.4-1.46V3.38c0-1,.36-1.46,1.46-1.46H22.15V6.86H5.82V17.78l6.45-.05c1.93,0,4.73-.21,7.65-.47a62.73,62.73,0,0,0,7.54-1.09ZM35,44.62c0,1.09-.42,1.45-1.46,1.45H5.93c-1.09,0-1.46-.36-1.46-1.45V29.12c0-1,.37-1.46,1.46-1.46H33.54A1.28,1.28,0,0,1,35,29.12Zm-5.83-3.38V32.55H10.3v8.69ZM35,25.84H29.12V.05H35V8.84h6v4.94H35Z"/><path class="cls-1" d="M85.49,41.45h-43v-5H60.89V27.09H49.35c-1.09,0-1.41-.36-1.41-1.45V1.4h5.93V9H74.1V1.4H80V25.64c0,1.09-.42,1.45-1.46,1.45H67v9.36H85.49ZM74.1,22.1V13.94H53.87V22.1Z"/><path class="cls-1" d="M111.7,1.92a1.27,1.27,0,0,1,1.45,1.46C111.9,15,105.25,22.62,92.3,26.83l-3.64-4.26c10-2.71,16-7.91,17.84-15.65H91.21v-5Zm14.35,42.7c0,1.09-.42,1.45-1.46,1.45H97.14c-1.1,0-1.46-.36-1.46-1.45v-15c0-1,.36-1.46,1.46-1.46h27.45a1.28,1.28,0,0,1,1.46,1.46Zm-5.83-3.38V33.07H101.5v8.17ZM126,26.36h-5.88V0H126V10.3h6.08v4.94H126Z"/><path class="cls-1" d="M158.65,26.16c-4.57-2.14-8.63-5.1-10.5-8.43a14.07,14.07,0,0,1-4.11,5.1,38.07,38.07,0,0,1-6.71,4.52L133,23.45c7.75-3,12-8.11,12-14.4V6.92H136.6V2h23.14V6.92h-8.47V9.1c0,6,4.37,10.71,11,12.79Zm11.08,18.77c-3,1.66-7.13,2.5-11.91,2.5s-8.89-.84-11.8-2.5-4.69-4.11-4.69-7.28,1.83-5.51,4.79-7.23a28.1,28.1,0,0,1,23.61,0c2.91,1.66,4.73,4.11,4.73,7.23a6.89,6.89,0,0,1-1.3,4.21A11.46,11.46,0,0,1,169.73,44.93Zm-1.61-7.39c0-3.32-4-5.09-10.25-5.09-6,0-10.24,1.92-10.24,5.09,0,1.62.93,2.92,2.86,3.85a16.05,16.05,0,0,0,7.38,1.46,15.61,15.61,0,0,0,7.39-1.51C167.08,40.46,168.12,39.16,168.12,37.54Zm5.35-9.3h-5.82V15.08H159V10.19h8.63V0h5.82Z"/><path class="cls-1" d="M203.79,36.92c-4.27-2.91-8.63-7.33-10.71-12.12a20,20,0,0,1-4,6.66,36.26,36.26,0,0,1-6.81,6.5l-4.89-3.85c8.74-5.35,12.53-13.21,12.53-22.36v-10h6.19V12.06c-.05,8.79,3.85,16.12,12,20.91Zm14.35,9.67h-5.88V.05h5.88Z"/><path class="cls-1" d="M266.86,40.87h-43v-5h43Zm-5.46-13.1a31.63,31.63,0,0,1-9.67-5.25,22.76,22.76,0,0,1-6.45-7.44c-2.91,5.62-8.16,10-15.91,12.74l-4.11-4.42a28.52,28.52,0,0,0,12-6.76c3.12-3.12,4.88-6.71,4.88-10.71V1.61h6.35V5.93c0,4,2,7.8,5.15,10.92A26.11,26.11,0,0,0,265.2,23.5Z"/><path class="cls-1" d="M291.93,24.86a81.81,81.81,0,0,1-8.58.72c-2.45.16-4.74.16-6.56.16h-3.22c-1.09,0-1.4-.36-1.4-1.46v-21c0-1,.36-1.46,1.45-1.46h15.55V6.71H277.94v4.47h10.24v4.47H278V20.9l6-.1a54.31,54.31,0,0,0,7.91-.73Zm17.31,19.76c0,1.09-.41,1.45-1.45,1.45H278.61c-1.09,0-1.45-.36-1.45-1.45V30.68c0-1,.36-1.46,1.45-1.46h29.18a1.27,1.27,0,0,1,1.45,1.46Zm-5.87-3.33V34.06H283.09v7.23ZM300.2,27.4h-5.72V14.82h-5.2v-5h5.2V.83h5.72Zm9,0h-5.72V.05h5.72Z"/></g></g></svg>