<?xml version="1.0" encoding="UTF-8"?><svg xmlns="http://www.w3.org/2000/svg" xmlns:xlink="http://www.w3.org/1999/xlink" viewBox="0 0 529.56 123.8"><defs><style>.h{fill:#78b6e4;}.i{fill:#73b4e3;}.j{fill:#a8cded;}.k{fill:#b5d4ef;}.l{fill:#cce1f4;}.m{fill:#8bbee7;}.n{fill:#cbe0f4;}.o{fill:#47a5dd;}.p{fill:#c6ddf3;}.q{fill:#75b5e3;}.r{fill:#96c4e9;}.s{fill:#e7f1fa;}.t{fill:#fff;}.u,.v{mix-blend-mode:multiply;}.u,.w{fill:#0090d4;}.x{fill:#d2e4f6;}.y{fill:#51a8de;}.a`{fill:#b7d5f0;}.aa{fill:#bad7f0;}.ab{fill:#6eb2e2;}.ac{fill:#64aee1;}.ad{fill:#48a5dd;}.ae{fill:#8dbfe8;}.af{fill:#94c3e9;}.ag{fill:#79b6e4;}.ah{fill:#6ab0e2;}.ai{fill:#72b3e3;}.aj{fill:#aaceed;}.ak{fill:#cee2f5;}.al{fill:#b9d6f0;}.am{fill:#68afe1;}.an{fill:#5babe0;}.ao{fill:#50a7de;}.ap{fill:#e0ecf9;}.aq{fill:#62ade0;}.ar{fill:#bfd9f1;}.as{fill:#60ade0;}.at{fill:#9bc6ea;}.au{fill:#d8e8f7;}.av{fill:#a4caec;}.aw{fill:#84bbe6;}.ax{fill:#e6f0fa;}.ay{fill:#ebf3fb;}.b`{isolation:isolate;}.ba{fill:#d4e5f6;}.bb{fill:#aed0ee;}.bc{fill:#91c1e8;}.bd{fill:#8cbfe7;}.be{fill:#c4dcf2;}.bf{fill:#a5cbec;}.bg{fill:#76b5e4;}.bh{fill:#a2c9eb;}.bi{fill:#45a5dd;}.bj{fill:#7eb8e5;}.bk{fill:#7fb9e5;}.bl{fill:#5aabdf;}.bm{fill:#6db1e2;}.bn{fill:#56a9df;}.bo{fill:#cfe2f5;}.bp{fill:#8ec0e8;}.bq{fill:#d7e7f7;}.br{fill:#ddeaf8;}.bs{fill:#9cc6ea;}.bt{fill:#92c1e8;}.bu{fill:#bbd7f1;}.bv{fill:#bed8f1;}.bw{fill:#b8d5f0;}.bx{fill:#2e92d1;font-family:KoPubWorldDotumPB-KSCpc-EUC-H, KoPubWorldDotum_Pro;font-size:36px;}.by{fill:#e5effa;}.c`{fill:#4ca6de;}.ca{fill:#b4d3ef;}.cb{fill:#65afe1;}.cc{fill:#a6ccec;}.cd{fill:#63aee1;}.ce{fill:#afd0ee;}.cf{fill:#4da7de;}.cg{fill:#f4f8fd;}.ch{fill:#c9dff4;}.ci{fill:#58aadf;}.cj{fill:#cadff4;}.ck{fill:#a9cded;}.cl{fill:#97c4e9;}.cm{fill:#7bb7e4;}.cn{fill:#82bae6;}.co{fill:#6fb2e2;}.cp{fill:#95c3e9;}.cq{fill:#a7cced;}.cr{fill:#54a9df;}.cs{fill:#b0d1ee;}.ct{fill:#edf4fb;}.cu{fill:#b6d4f0;}.v{fill:url(#f);}.cv{fill:#85bbe6;}.cw{fill:#93c2e9;}.cx{fill:#e4eff9;}.cy{fill:#c8def3;}.d`{fill:#89bee7;}.da{fill:#9ec8eb;}.db{fill:#d6e7f7;}.dc{fill:#5dabe0;}.dd{fill:#c2dbf2;}.de{fill:#abceed;}.df{fill:#81bae5;}.dg{fill:#dae9f7;}.dh{fill:#f1f7fc;}.di{fill:#86bce6;}.dj{clip-path:url(#d);}.dk{fill:#f0f6fc;}.dl{fill:#5face0;}.dm{fill:#b3d2ef;}.dn{fill:#bcd8f1;}.do{fill:#c7def3;}.dp{fill:#43a4dd;}.dq{fill:#b2d2ef;}.dr{fill:#59aadf;}.ds{fill:url(#e);}.dt{fill:#c1daf2;}.du{fill:#eaf2fb;}.dv{fill:#88bde7;}.dw{fill:none;}.dx{fill:#9ac5ea;}.dy{fill:#e3eef9;}.e`{fill:#e1edf9;}.ea{fill:#e9f2fb;}.eb{fill:#f2f7fd;}.ec{fill:#69b0e2;}.ed{fill:#d5e6f6;}.ee{fill:#d3e5f6;}.ef{fill:#f3f8fd;}.eg{fill:#49a6dd;}.eh{fill:#e2edf9;}.ei{fill:#55a9df;}.ej{fill:#42a4dd;}.ek{fill:#44a4dd;}.el{fill:#eff5fc;}.em{fill:#7ab7e4;}.en{fill:#adcfee;}.eo{fill:#dceaf8;}.ep{fill:#c3dbf2;}.eq{fill:#67afe1;}.er{fill:#deebf8;}.es{fill:#99c5ea;}.et{fill:url(#g);mix-blend-mode:screen;}.eu{fill:#d0e3f5;}.ev{fill:#4ba6dd;}.ew{fill:#a3caec;}.ex{fill:#9dc7eb;}.ey{fill:#4ea7de;}.f`{fill:#52a8de;}.fa{fill:#003389;}.fb{fill:#5eace0;}.fc{fill:#d1e4f5;}.fd{fill:#f4f9fd;}.fe{fill:#8fc0e8;}.ff{fill:#c0d9f2;}.fg{fill:#70b3e3;}.fh{fill:#d9e8f7;}.fi{fill:#eef5fc;}.fj{fill:#b1d1ef;}.fk{fill:#7cb8e5;}.fl{fill:#cde1f4;}.fm{fill:#74b4e3;}.fn{fill:#f7fafe;}.fo{fill:#f6fafd;}.fp{fill:#6bb1e2;}.fq{fill:#a0c9eb;}.fr{fill:#e8f1fa;}.fs{fill:#c5dcf3;}.ft{fill:#80b9e5;}.fu{fill:#ecf4fb;}.fv{fill:#dfecf8;}.fw{fill:#9fc8eb;}.fx{fill:#87bde7;}</style><clipPath id="d"><path class="dw" d="M80.56,69.54c-1.58,9.09-10.74,31.96-27.61,34.92-12.6,2.21-25.72-5.97-29.17-12.08-3.65,7.5-1.33,22.51,7.75,28.86,10.36,3.54,26.32,3.91,38.55-2.21,14.11-8.57,15.27-29.39,10.48-49.49Z"/></clipPath><radialGradient id="e" cx="626.92" cy="334.89" fx="626.92" fy="334.89" r="53.94" gradientTransform="translate(-347.5 -143.02) scale(.69)" gradientUnits="userSpaceOnUse"><stop offset="0" stop-color="#fafcfe"/><stop offset=".07" stop-color="#d7edf8"/><stop offset=".25" stop-color="#8ccceb"/><stop offset=".41" stop-color="#4fb2e1"/><stop offset=".54" stop-color="#249fda"/><stop offset=".64" stop-color="#0994d5"/><stop offset=".71" stop-color="#0090d4"/></radialGradient><radialGradient id="f" cx="112.75" cy="177.22" fx="112.75" fy="177.22" r="57.06" gradientTransform="translate(-92.65 -142.29) scale(1.13)" gradientUnits="userSpaceOnUse"><stop offset="0" stop-color="#f9f9fc"/><stop offset=".05" stop-color="#f1f1f7"/><stop offset=".12" stop-color="#ddddec"/><stop offset=".2" stop-color="#bbbcda"/><stop offset=".29" stop-color="#8d8fc1"/><stop offset=".31" stop-color="#8789be"/><stop offset=".34" stop-color="#777fb7"/><stop offset=".43" stop-color="#4c63a7"/><stop offset=".52" stop-color="#2b4e9a"/><stop offset=".6" stop-color="#133f90"/><stop offset=".68" stop-color="#04368a"/><stop offset=".75" stop-color="#003389"/></radialGradient><radialGradient id="g" cx="157" cy="203.28" fx="157" fy="203.28" r="44.32" xlink:href="#f"/></defs><g class="b`"><g id="a"/><g id="b"><g id="c"><g><g><path class="t" d="M81.72,10.97c-1.72,6.02-8.16,16.45-16.51,23.24,6.38,8.96,12.18,21.99,15.35,35.35-.58,3.31-2.16,8.46-4.76,13.79-3.66-16.91-13.1-37.66-29.19-58.73-10.03,4.06-19.96,8.79-28.09,13.69,3.75,8.28,11.21,23.21,16.66,32.7-9.81,5.46-19.18,13.34-23.09,18.63C4.91,75.64,2.06,60.59,2.11,49.99c-.83,2.81-1.34,5.91-1.63,8.39-2.95,24.6,7.84,51.92,26.19,60.87,1.54,.75,3.19,1.4,4.86,2,2.9,.99,6.04,1.7,9.69,2.14,9.22,1.11,20.02,.08,28.87-4.35,28.22-14.14,34.69-57.64,11.63-108.07ZM34.42,101.29c4.12-2.82,8.79-5.51,13.33-7.7,1.57,3.44,3.1,7.26,4.4,11h0c-6.25,.88-12.57-.72-17.73-3.3Z"/><g><g><g class="dj"><rect class="ej" x="20.13" y="69.54" width="65.23" height="55.61"/><path class="ej" d="M26.54,106.38c-8.02-11.44-1.43-29.91,14.73-41.24v3.39h43.79v-3.19c8.02,11.45,1.43,29.91-14.73,41.24-16.16,11.34-35.77,11.24-43.79-.2Z"/><path class="dp" d="M26.72,106.26c-7.98-11.38-1.43-29.73,14.63-40.99v3.27h43.52v-3.07c7.98,11.38,1.43,29.73-14.63,40.99-16.06,11.26-35.54,11.17-43.52-.2Z"/><path class="ek" d="M26.9,106.13c-7.93-11.3-1.41-29.54,14.54-40.73v3.14h43.25v-2.94c7.93,11.3,1.42,29.54-14.54,40.73-15.96,11.19-35.32,11.1-43.25-.2Z"/><path class="bi" d="M27.08,106.01c-7.87-11.23-1.41-29.36,14.45-40.48v3.01h42.98v-2.81c7.88,11.23,1.41,29.36-14.45,40.48-15.86,11.12-35.1,11.04-42.98-.2Z"/><path class="o" d="M27.26,105.88c-7.83-11.16-1.4-29.17,14.36-40.22v2.88h42.71v-2.69c7.83,11.16,1.39,29.17-14.36,40.23-15.76,11.05-34.88,10.96-42.71-.2Z"/><path class="ad" d="M27.45,105.75c-7.78-11.09-1.39-28.98,14.27-39.97v2.76h42.44v-2.56c7.78,11.09,1.39,28.98-14.27,39.97-15.66,10.98-34.66,10.89-42.44-.2Z"/><path class="eg" d="M27.63,105.63c-7.73-11.02-1.38-28.8,14.18-39.71v2.63h42.17v-2.43c7.73,11.02,1.38,28.8-14.18,39.71-15.56,10.91-34.44,10.82-42.17-.2Z"/><path class="ev" d="M27.81,105.5c-7.68-10.95-1.37-28.62,14.09-39.46v2.5h41.9v-2.3c7.68,10.95,1.37,28.62-14.09,39.46-15.46,10.84-34.22,10.76-41.9-.19Z"/><path class="c`" d="M27.99,105.37c-7.63-10.88-1.36-28.43,14-39.2v2.37h41.63v-2.18c7.63,10.88,1.36,28.43-14,39.21-15.36,10.77-34,10.68-41.63-.2Z"/><path class="cf" d="M28.17,105.25c-7.58-10.81-1.36-28.25,13.91-38.95v2.25h41.36v-2.05c7.58,10.81,1.35,28.25-13.91,38.95-15.26,10.7-33.78,10.62-41.36-.19Z"/><path class="ey" d="M28.35,105.12c-7.53-10.74-1.34-28.06,13.82-38.7v2.12h41.09v-1.93c7.53,10.74,1.35,28.06-13.82,38.7-15.16,10.63-33.55,10.55-41.09-.19Z"/><path class="ao" d="M28.53,104.99c-7.48-10.67-1.34-27.88,13.73-38.44v1.99h40.82v-1.8c7.48,10.66,1.34,27.88-13.73,38.44-15.06,10.56-33.34,10.48-40.82-.19Z"/><path class="y" d="M28.71,104.87c-7.43-10.6-1.33-27.69,13.64-38.18v1.86h40.55v-1.67c7.43,10.6,1.32,27.7-13.64,38.19-14.96,10.49-33.11,10.41-40.55-.19Z"/><path class="f`" d="M28.89,104.74c-7.38-10.53-1.32-27.51,13.55-37.93v1.73h40.27v-1.55c7.38,10.53,1.32,27.51-13.54,37.93-14.86,10.42-32.89,10.34-40.28-.19Z"/><path class="cr" d="M29.07,104.61c-7.33-10.45-1.31-27.32,13.45-37.68v1.61h40v-1.42c7.34,10.45,1.31,27.32-13.45,37.68-14.76,10.35-32.67,10.27-40-.19Z"/><path class="ei" d="M29.25,104.49c-7.29-10.38-1.3-27.14,13.36-37.42v1.48h39.73v-1.29c7.28,10.39,1.3,27.14-13.36,37.43-14.66,10.28-32.45,10.2-39.73-.19Z"/><path class="bn" d="M29.43,104.36c-7.23-10.32-1.29-26.96,13.27-37.17v1.35h39.47v-1.16c7.23,10.31,1.29,26.95-13.27,37.17-14.56,10.21-32.23,10.13-39.46-.18Z"/><path class="ci" d="M29.61,104.23c-7.18-10.24-1.28-26.77,13.18-36.91v1.22h39.2v-1.04c7.18,10.24,1.28,26.77-13.18,36.91-14.46,10.14-32.02,10.06-39.2-.18Z"/><path class="dr" d="M29.79,104.11c-7.14-10.18-1.27-26.59,13.09-36.66v1.09h38.93v-.91c7.14,10.18,1.28,26.59-13.09,36.66-14.36,10.07-31.79,9.99-38.92-.18Z"/><path class="bl" d="M29.97,103.98c-7.09-10.1-1.27-26.4,13-36.4v.96h38.65v-.79c7.09,10.1,1.27,26.4-13,36.4-14.27,10-31.57,9.92-38.66-.18Z"/><path class="an" d="M30.15,103.85c-7.04-10.03-1.26-26.22,12.91-36.15v.84h38.39v-.66c7.04,10.04,1.25,26.22-12.91,36.15-14.16,9.93-31.35,9.85-38.39-.18Z"/><path class="dc" d="M30.33,103.73c-6.98-9.96-1.25-26.04,12.82-35.9v.71h38.12v-.53c6.98,9.96,1.25,26.03-12.82,35.89-14.07,9.86-31.13,9.79-38.12-.18Z"/><path class="fb" d="M30.52,103.6c-6.94-9.89-1.24-25.85,12.72-35.64v.58h37.84v-.41c6.94,9.89,1.24,25.85-12.72,35.64-13.96,9.79-30.91,9.71-37.84-.18Z"/><path class="dl" d="M30.7,103.47c-6.89-9.82-1.23-25.66,12.63-35.39v.45h37.57v-.28c6.89,9.82,1.23,25.66-12.63,35.38-13.87,9.72-30.69,9.64-37.57-.17Z"/><path class="as" d="M30.88,103.35c-6.84-9.75-1.22-25.48,12.54-35.13v.32h37.3v-.15c6.84,9.75,1.22,25.48-12.54,35.13-13.77,9.65-30.47,9.57-37.3-.18Z"/><path class="aq" d="M31.06,103.22c-6.79-9.68-1.21-25.29,12.45-34.88v.2h37.04v-.03c6.79,9.68,1.21,25.3-12.45,34.88-13.66,9.58-30.25,9.51-37.04-.17Z"/><path class="cd" d="M31.24,103.09c-6.74-9.61-1.2-25.11,12.36-34.62v.07h30.09v-5.32c2.7,1.21,4.99,3.02,6.68,5.42,6.73,9.61,1.2,25.11-12.36,34.62-13.57,9.52-30.03,9.44-36.76-.17Z"/><path class="ac" d="M31.42,102.97c-6.69-9.54-1.2-24.93,12.27-34.37,3.37-2.36,6.91-4.13,10.44-5.3v5.24h10.35v-6.98c6.61,.03,12.36,2.44,15.7,7.2,6.69,9.54,1.2,24.93-12.27,34.37-13.46,9.45-29.8,9.37-36.49-.17Z"/><path class="cb" d="M31.6,102.84c-6.64-9.46-1.19-24.74,12.18-34.11,6.68-4.69,14.08-7.01,20.63-6.98,6.55,.03,12.27,2.42,15.59,7.15,6.64,9.46,1.18,24.74-12.18,34.11-13.37,9.37-29.58,9.3-36.22-.17Z"/><path class="eq" d="M31.78,102.71c-6.59-9.39-1.18-24.55,12.09-33.86,6.63-4.65,13.97-6.96,20.48-6.93,6.5,.03,12.18,2.39,15.47,7.09,6.59,9.39,1.18,24.55-12.09,33.86s-29.36,9.23-35.95-.17Z"/><path class="am" d="M31.96,102.59c-6.54-9.33-1.16-24.37,12-33.61,6.58-4.62,13.87-6.91,20.33-6.88,6.45,.03,12.09,2.38,15.35,7.04,6.54,9.32,1.17,24.37-12,33.6-13.17,9.23-29.14,9.16-35.68-.16Z"/><path class="ec" d="M32.14,102.46c-6.49-9.25-1.16-24.18,11.91-33.35,6.54-4.58,13.76-6.86,20.17-6.82,6.41,.03,12,2.36,15.24,6.99,6.49,9.25,1.16,24.19-11.91,33.35-13.07,9.16-28.92,9.09-35.41-.17Z"/><path class="ah" d="M32.32,102.33c-6.44-9.18-1.15-24,11.82-33.1,6.48-4.55,13.66-6.8,20.02-6.77,6.36,.03,11.91,2.34,15.12,6.93,6.44,9.19,1.15,24-11.82,33.1-12.96,9.09-28.7,9.02-35.14-.16Z"/><path class="fp" d="M32.5,102.21c-6.39-9.11-1.14-23.82,11.73-32.84,6.43-4.51,13.55-6.75,19.86-6.72,6.31,.03,11.81,2.32,15.01,6.88,6.39,9.11,1.14,23.82-11.73,32.84-12.87,9.02-28.48,8.95-34.87-.16Z"/><path class="bm" d="M32.68,102.08c-6.34-9.04-1.13-23.63,11.64-32.59,6.38-4.48,13.45-6.7,19.71-6.67,6.26,.03,11.72,2.31,14.89,6.83,6.34,9.04,1.13,23.63-11.64,32.59-12.77,8.96-28.26,8.88-34.6-.16Z"/><path class="ab" d="M32.86,101.96c-6.29-8.97-1.12-23.45,11.54-32.33,6.33-4.44,13.34-6.64,19.55-6.62,6.21,.03,11.63,2.29,14.77,6.78,6.29,8.97,1.12,23.45-11.54,32.33-12.67,8.89-28.04,8.81-34.33-.16Z"/><path class="co" d="M33.04,101.83c-6.24-8.9-1.12-23.26,11.45-32.07,6.28-4.41,13.24-6.59,19.4-6.57,6.16,.03,11.54,2.27,14.66,6.72,6.24,8.9,1.11,23.26-11.45,32.08-12.57,8.81-27.82,8.74-34.06-.16Z"/><path class="fg" d="M33.22,101.7c-6.19-8.83-1.11-23.08,11.36-31.82,6.23-4.37,13.13-6.54,19.25-6.51,6.12,.03,11.45,2.25,14.54,6.67,6.19,8.83,1.11,23.08-11.36,31.82-12.47,8.75-27.59,8.68-33.79-.16Z"/><path class="ai" d="M33.4,101.57c-6.14-8.76-1.09-22.89,11.27-31.57,6.18-4.34,13.03-6.49,19.09-6.46,6.07,.03,11.35,2.24,14.43,6.62,6.14,8.76,1.1,22.89-11.27,31.57-12.37,8.68-27.37,8.61-33.52-.16Z"/><path class="i" d="M33.59,101.45c-6.1-8.69-1.09-22.71,11.18-31.31,6.13-4.3,12.92-6.44,18.94-6.41,6.02,.03,11.26,2.22,14.31,6.56,6.09,8.69,1.09,22.71-11.18,31.32-12.27,8.6-27.15,8.53-33.25-.16Z"/><path class="fm" d="M33.77,101.32c-6.05-8.62-1.08-22.53,11.09-31.06,12.17-8.53,26.93-8.46,32.98,.16,6.05,8.62,1.08,22.52-11.09,31.06-12.17,8.54-26.93,8.46-32.98-.15Z"/><path class="q" d="M33.95,101.19c-6-8.55-1.07-22.34,11-30.8,12.07-8.46,26.71-8.39,32.71,.15,6,8.55,1.07,22.34-11,30.8-12.07,8.46-26.71,8.4-32.71-.15Z"/><path class="bg" d="M34.13,101.07c-5.95-8.48-1.06-22.16,10.91-30.55,11.97-8.39,26.49-8.33,32.44,.15,5.95,8.48,1.06,22.15-10.91,30.55-11.97,8.39-26.49,8.33-32.44-.15Z"/><path class="h" d="M34.31,100.94c-5.9-8.41-1.05-21.97,10.82-30.29,11.87-8.32,26.27-8.26,32.17,.15,5.89,8.41,1.05,21.97-10.82,30.29-11.87,8.33-26.27,8.26-32.16-.15Z"/><path class="ag" d="M34.49,100.81c-5.85-8.34-1.05-21.79,10.73-30.04,11.77-8.26,26.05-8.19,31.89,.15,5.85,8.34,1.04,21.79-10.73,30.04-11.77,8.25-26.05,8.19-31.89-.15Z"/><path class="em" d="M34.67,100.69c-5.8-8.27-1.04-21.6,10.63-29.79,11.67-8.18,25.83-8.12,31.63,.15,5.8,8.27,1.04,21.6-10.64,29.79-11.67,8.18-25.83,8.12-31.62-.15Z"/><path class="cm" d="M34.85,100.56c-5.75-8.2-1.02-21.42,10.55-29.53,11.57-8.11,25.61-8.05,31.36,.14s1.03,21.42-10.54,29.53c-11.57,8.12-25.61,8.05-31.36-.14Z"/><path class="fk" d="M35.03,100.43c-5.7-8.12-1.02-21.23,10.45-29.27,11.47-8.05,25.39-7.98,31.09,.14,5.7,8.12,1.02,21.23-10.45,29.28-11.47,8.04-25.39,7.98-31.09-.15Z"/><path class="bj" d="M35.21,100.31c-5.65-8.05-1.01-21.05,10.36-29.02,11.37-7.97,25.16-7.91,30.81,.14,5.65,8.05,1.01,21.05-10.36,29.02-11.37,7.97-25.17,7.91-30.82-.14Z"/><path class="bk" d="M35.39,100.18c-5.6-7.98-1-20.86,10.27-28.77,11.27-7.9,24.95-7.84,30.55,.14,5.6,7.98,1,20.86-10.27,28.77-11.27,7.91-24.95,7.84-30.55-.14Z"/><path class="ft" d="M35.57,100.05c-5.55-7.91-.99-20.68,10.18-28.51,11.17-7.84,24.73-7.77,30.28,.14,5.55,7.91,.99,20.68-10.18,28.51-11.17,7.84-24.73,7.77-30.28-.14Z"/><path class="df" d="M35.75,99.93c-5.5-7.84-.98-20.5,10.09-28.26,11.07-7.77,24.51-7.7,30.01,.14,5.5,7.84,.98,20.5-10.09,28.26-11.07,7.77-24.51,7.7-30.01-.14Z"/><path class="cn" d="M35.93,99.8c-5.45-7.77-.98-20.31,10-28,10.97-7.7,24.29-7.63,29.73,.14s.97,20.31-10,28c-10.97,7.7-24.29,7.63-29.73-.14Z"/><path class="aw" d="M36.11,99.67c-5.4-7.7-.96-20.12,9.91-27.75,10.87-7.62,24.07-7.56,29.46,.14,5.4,7.7,.96,20.12-9.91,27.75-10.87,7.63-24.07,7.56-29.46-.14Z"/><path class="cv" d="M36.29,99.55c-5.35-7.63-.95-19.94,9.82-27.5,10.77-7.55,23.84-7.5,29.2,.14,5.35,7.63,.96,19.94-9.82,27.49s-23.84,7.5-29.2-.13Z"/><path class="di" d="M36.47,99.42c-5.3-7.56-.95-19.75,9.73-27.24,10.67-7.48,23.62-7.43,28.93,.13s.95,19.75-9.73,27.24c-10.68,7.48-23.62,7.42-28.93-.14Z"/><path class="fx" d="M36.66,99.29c-5.25-7.49-.94-19.57,9.63-26.99,10.57-7.41,23.4-7.35,28.65,.14,5.25,7.49,.94,19.57-9.63,26.98-10.57,7.41-23.4,7.36-28.65-.13Z"/><path class="dv" d="M36.84,99.17c-5.2-7.42-.93-19.38,9.54-26.73,10.47-7.34,23.18-7.29,28.38,.13,5.2,7.42,.93,19.39-9.54,26.73-10.47,7.34-23.18,7.29-28.38-.13Z"/><path class="d`" d="M37.02,99.04c-5.15-7.35-.92-19.2,9.45-26.48,10.37-7.27,22.96-7.22,28.11,.13,5.15,7.34,.92,19.2-9.45,26.47-10.37,7.28-22.96,7.22-28.11-.13Z"/><path class="m" d="M37.2,98.91c-5.1-7.27-.91-19.02,9.36-26.22,10.27-7.21,22.74-7.15,27.84,.13,5.1,7.28,.91,19.02-9.36,26.22-10.27,7.21-22.74,7.15-27.84-.13Z"/><path class="bd" d="M37.38,98.79c-5.05-7.21-.91-18.83,9.27-25.96,10.18-7.14,22.52-7.08,27.57,.12,5.05,7.21,.9,18.83-9.27,25.97-10.18,7.13-22.52,7.08-27.57-.13Z"/><path class="ae" d="M37.56,98.66c-5-7.13-.89-18.64,9.18-25.71,10.07-7.06,22.3-7.01,27.3,.13,5,7.13,.89,18.64-9.18,25.71-10.07,7.07-22.3,7.01-27.3-.13Z"/><path class="bp" d="M37.74,98.53c-4.95-7.06-.88-18.46,9.09-25.46,9.97-7,22.08-6.94,27.03,.12,4.95,7.07,.89,18.46-9.09,25.46-9.98,7-22.08,6.94-27.03-.12Z"/><path class="fe" d="M37.92,98.41c-4.91-7-.87-18.28,9-25.2s21.86-6.87,26.76,.12c4.9,6.99,.87,18.28-9,25.2-9.87,6.92-21.86,6.87-26.76-.12Z"/><path class="bc" d="M38.1,98.28c-4.85-6.92-.87-18.09,8.91-24.95,9.77-6.85,21.64-6.8,26.49,.12,4.86,6.92,.87,18.09-8.91,24.95-9.77,6.86-21.64,6.8-26.49-.12Z"/><path class="bt" d="M38.28,98.15c-4.81-6.86-.86-17.91,8.82-24.7,9.68-6.79,21.41-6.73,26.22,.12,4.81,6.86,.86,17.91-8.82,24.7-9.68,6.79-21.41,6.73-26.22-.12Z"/><path class="cw" d="M38.46,98.03c-4.76-6.78-.85-17.72,8.73-24.44,9.57-6.71,21.19-6.66,25.95,.12,4.76,6.78,.85,17.72-8.73,24.44-9.57,6.71-21.2,6.66-25.95-.12Z"/><path class="af" d="M38.64,97.9c-4.71-6.71-.84-17.54,8.64-24.18,9.48-6.64,20.97-6.59,25.68,.12,4.71,6.71,.84,17.54-8.64,24.19-9.48,6.64-20.97,6.59-25.68-.12Z"/><path class="cp" d="M38.82,97.78c-4.66-6.64-.83-17.36,8.55-23.93,9.37-6.57,20.75-6.52,25.41,.12,4.66,6.64,.83,17.35-8.55,23.93-9.37,6.57-20.75,6.52-25.41-.12Z"/><path class="r" d="M39,97.65c-4.61-6.57-.82-17.17,8.45-23.68,9.27-6.5,20.53-6.45,25.14,.12,4.61,6.57,.82,17.17-8.45,23.68-9.28,6.5-20.53,6.45-25.14-.12Z"/><path class="cl" d="M39.18,97.52c-4.56-6.5-.81-16.99,8.36-23.42,9.18-6.44,20.31-6.38,24.87,.11,4.56,6.5,.82,16.99-8.36,23.42-9.18,6.44-20.31,6.39-24.87-.11Z"/><path class="es" d="M39.36,97.39c-4.51-6.43-.8-16.8,8.27-23.16,9.07-6.37,20.09-6.32,24.6,.11,4.51,6.43,.8,16.8-8.27,23.17-9.07,6.36-20.09,6.31-24.6-.12Z"/><path class="dx" d="M39.54,97.27c-4.46-6.36-.8-16.62,8.18-22.91,8.98-6.29,19.87-6.24,24.33,.11,4.46,6.36,.79,16.62-8.18,22.91-8.98,6.29-19.87,6.25-24.33-.11Z"/><path class="at" d="M39.73,97.14c-4.41-6.29-.79-16.43,8.09-22.66,8.87-6.23,19.65-6.18,24.05,.11,4.41,6.29,.79,16.43-8.09,22.66-8.87,6.23-19.65,6.18-24.05-.11Z"/><path class="bs" d="M39.91,97.01c-4.36-6.21-.78-16.25,8-22.4,8.78-6.16,19.43-6.11,23.79,.11,4.36,6.22,.78,16.25-8,22.4-8.78,6.16-19.43,6.11-23.79-.11Z"/><path class="ex" d="M40.09,96.89c-4.31-6.15-.77-16.06,7.91-22.15,8.68-6.09,19.2-6.04,23.52,.11,4.31,6.14,.77,16.06-7.91,22.15-8.68,6.09-19.21,6.04-23.52-.11Z"/><path class="da" d="M40.27,96.76c-4.26-6.07-.76-15.88,7.82-21.89,8.58-6.02,18.99-5.96,23.25,.11,4.26,6.07,.76,15.88-7.82,21.89-8.58,6.02-18.98,5.97-23.25-.11Z"/><path class="fw" d="M40.45,96.63c-4.21-6.01-.75-15.7,7.73-21.64,8.48-5.95,18.76-5.9,22.98,.11,4.21,6,.75,15.69-7.73,21.64-8.48,5.95-18.77,5.9-22.98-.11Z"/><path class="fq" d="M40.63,96.51c-4.16-5.93-.74-15.51,7.63-21.38,8.38-5.88,18.55-5.83,22.71,.11,4.16,5.93,.75,15.51-7.63,21.38-8.38,5.88-18.55,5.83-22.71-.11Z"/><path class="bh" d="M40.81,96.38c-4.11-5.86-.73-15.32,7.54-21.13,8.28-5.81,18.32-5.76,22.44,.1,4.11,5.87,.73,15.32-7.54,21.13-8.28,5.8-18.32,5.76-22.44-.11Z"/><path class="ew" d="M40.99,96.25c-4.06-5.79-.73-15.14,7.45-20.88,8.18-5.73,18.11-5.69,22.17,.11,4.06,5.79,.72,15.14-7.45,20.88-8.18,5.73-18.11,5.69-22.17-.11Z"/><path class="av" d="M41.17,96.13c-4.01-5.72-.71-14.95,7.36-20.62,8.08-5.66,17.88-5.62,21.89,.1,4.02,5.72,.72,14.96-7.36,20.62-8.08,5.67-17.88,5.62-21.9-.1Z"/><path class="bf" d="M41.35,96c-3.96-5.65-.71-14.77,7.27-20.37,7.98-5.6,17.66-5.55,21.62,.1,3.96,5.65,.71,14.77-7.27,20.36-7.98,5.6-17.66,5.55-21.62-.1Z"/><path class="cc" d="M41.53,95.87c-3.91-5.58-.7-14.59,7.18-20.11,7.88-5.53,17.44-5.48,21.36,.1,3.91,5.58,.7,14.59-7.18,20.11-7.88,5.52-17.44,5.48-21.36-.1Z"/><path class="cq" d="M41.71,95.75c-3.86-5.51-.69-14.4,7.09-19.86,7.78-5.45,17.22-5.41,21.09,.1,3.86,5.51,.69,14.4-7.09,19.86-7.78,5.46-17.22,5.41-21.09-.1Z"/><path class="j" d="M41.89,95.62c-3.81-5.44-.68-14.21,7-19.6,7.68-5.39,17-5.34,20.82,.1,3.81,5.44,.68,14.21-7,19.6-7.68,5.39-17,5.34-20.82-.1Z"/><path class="ck" d="M42.08,95.49c-3.77-5.37-.67-14.03,6.91-19.35,7.58-5.32,16.78-5.27,20.54,.09,3.77,5.37,.68,14.03-6.91,19.35s-16.78,5.27-20.54-.09Z"/><path class="aj" d="M42.25,95.37c-3.71-5.3-.66-13.85,6.82-19.09,7.48-5.25,16.56-5.21,20.27,.09,3.71,5.3,.66,13.84-6.82,19.09-7.48,5.25-16.56,5.2-20.27-.09Z"/><path class="de" d="M42.43,95.24c-3.66-5.23-.66-13.66,6.73-18.84,7.38-5.18,16.34-5.13,20,.09,3.67,5.23,.65,13.66-6.73,18.84-7.38,5.18-16.34,5.13-20-.09Z"/><path class="en" d="M42.61,95.12c-3.62-5.16-.64-13.48,6.64-18.59,7.28-5.11,16.12-5.07,19.73,.09,3.61,5.16,.64,13.48-6.64,18.58-7.28,5.11-16.12,5.07-19.73-.09Z"/><path class="bb" d="M42.8,94.99c-3.57-5.09-.64-13.29,6.54-18.33,7.18-5.04,15.89-5,19.46,.09,3.57,5.09,.64,13.29-6.54,18.33-7.18,5.04-15.89,5-19.46-.09Z"/><path class="ce" d="M42.98,94.86c-3.52-5.02-.63-13.11,6.45-18.07,7.08-4.97,15.68-4.93,19.19,.09,3.52,5.02,.63,13.11-6.45,18.07-7.08,4.96-15.68,4.93-19.19-.09Z"/><path class="cs" d="M43.16,94.73c-3.47-4.95-.62-12.92,6.36-17.82,6.98-4.89,15.45-4.86,18.92,.09,3.47,4.95,.62,12.92-6.36,17.82-6.98,4.9-15.45,4.86-18.92-.09Z"/><path class="fj" d="M43.34,94.61c-3.42-4.88-.61-12.74,6.27-17.57,6.88-4.83,15.23-4.79,18.65,.09,3.42,4.88,.61,12.74-6.27,17.57-6.88,4.83-15.23,4.79-18.65-.09Z"/><path class="dq" d="M43.52,94.48c-3.37-4.8-.6-12.55,6.18-17.31,6.78-4.76,15.01-4.72,18.38,.09,3.37,4.8,.6,12.55-6.18,17.31-6.78,4.76-15.01,4.72-18.38-.09Z"/><path class="dm" d="M43.7,94.35c-3.32-4.73-.59-12.37,6.09-17.05,6.68-4.69,14.79-4.65,18.11,.08,3.32,4.73,.59,12.37-6.09,17.06-6.68,4.69-14.79,4.65-18.11-.09Z"/><path class="ca" d="M43.88,94.23c-3.27-4.66-.59-12.19,6-16.8,6.58-4.62,14.57-4.58,17.84,.09,3.27,4.66,.58,12.18-6,16.8-6.58,4.62-14.57,4.58-17.84-.08Z"/><path class="k" d="M44.06,94.1c-3.22-4.59-.57-12,5.91-16.55,6.48-4.55,14.35-4.51,17.57,.08,3.22,4.59,.57,12-5.91,16.55s-14.35,4.51-17.57-.08Z"/><path class="cu" d="M44.24,93.97c-3.17-4.52-.56-11.82,5.82-16.29,6.38-4.48,14.13-4.44,17.3,.08,3.17,4.52,.57,11.82-5.82,16.29-6.38,4.48-14.13,4.44-17.3-.08Z"/><path class="a`" d="M44.42,93.85c-3.12-4.45-.56-11.63,5.73-16.04,6.28-4.41,13.91-4.37,17.03,.08s.56,11.63-5.73,16.04c-6.28,4.41-13.91,4.37-17.03-.08Z"/><path class="bw" d="M44.6,93.72c-3.07-4.38-.55-11.45,5.64-15.79,6.18-4.34,13.69-4.3,16.76,.08,3.07,4.38,.55,11.45-5.64,15.79-6.18,4.34-13.69,4.3-16.76-.08Z"/><path class="al" d="M44.78,93.6c-3.02-4.31-.54-11.27,5.55-15.53,6.08-4.27,13.46-4.23,16.49,.08,3.02,4.31,.54,11.26-5.55,15.53-6.08,4.27-13.46,4.23-16.49-.07Z"/><path class="aa" d="M44.96,93.47c-2.97-4.24-.53-11.08,5.46-15.27,5.98-4.2,13.25-4.16,16.22,.07,2.97,4.24,.53,11.08-5.46,15.27-5.98,4.2-13.25,4.16-16.22-.07Z"/><path class="bu" d="M45.15,93.34c-2.93-4.17-.52-10.89,5.36-15.02,5.89-4.13,13.03-4.09,15.95,.07,2.93,4.17,.52,10.89-5.36,15.02-5.88,4.12-13.02,4.09-15.95-.07Z"/><path class="dn" d="M45.33,93.21c-2.87-4.1-.52-10.71,5.27-14.77,5.78-4.05,12.8-4.02,15.68,.07,2.87,4.1,.51,10.71-5.27,14.77-5.79,4.06-12.8,4.02-15.68-.07Z"/><path class="bv" d="M45.5,93.09c-2.82-4.03-.5-10.52,5.18-14.51,5.69-3.99,12.59-3.96,15.41,.07,2.82,4.03,.5,10.53-5.18,14.51-5.68,3.99-12.58,3.96-15.41-.07Z"/><path class="ar" d="M45.68,92.96c-2.77-3.95-.49-10.34,5.09-14.25,5.59-3.92,12.36-3.89,15.14,.07,2.77,3.96,.5,10.34-5.09,14.26-5.59,3.91-12.36,3.88-15.14-.07Z"/><path class="ff" d="M45.87,92.83c-2.73-3.89-.49-10.15,5-14,5.49-3.84,12.14-3.81,14.87,.07,2.73,3.89,.49,10.16-5,14-5.49,3.85-12.14,3.82-14.87-.07Z"/><path class="dt" d="M46.05,92.71c-2.68-3.82-.48-9.97,4.91-13.75,5.39-3.78,11.92-3.75,14.6,.07,2.68,3.81,.48,9.97-4.91,13.75-5.39,3.78-11.92,3.75-14.6-.07Z"/><path class="dd" d="M46.23,92.58c-2.62-3.74-.47-9.79,4.82-13.49,5.29-3.71,11.7-3.68,14.33,.07,2.62,3.75,.47,9.79-4.82,13.49-5.29,3.71-11.7,3.68-14.33-.07Z"/><path class="ep" d="M46.41,92.46c-2.57-3.68-.46-9.6,4.73-13.24,5.19-3.64,11.48-3.61,14.06,.07,2.57,3.67,.46,9.6-4.73,13.23-5.19,3.64-11.48,3.61-14.06-.06Z"/><path class="be" d="M46.59,92.33c-2.53-3.6-.45-9.41,4.63-12.98,5.09-3.57,11.26-3.54,13.79,.06,2.52,3.6,.45,9.41-4.64,12.98-5.09,3.57-11.26,3.54-13.79-.07Z"/><path class="fs" d="M46.77,92.2c-2.48-3.53-.45-9.23,4.54-12.73,4.99-3.5,11.04-3.47,13.52,.06,2.48,3.54,.44,9.23-4.54,12.73-4.99,3.5-11.04,3.47-13.52-.06Z"/><path class="p" d="M46.95,92.07c-2.43-3.46-.43-9.05,4.45-12.47,4.89-3.43,10.82-3.4,13.25,.06,2.43,3.46,.43,9.05-4.45,12.47-4.89,3.43-10.82,3.4-13.25-.06Z"/><path class="do" d="M47.13,91.95c-2.38-3.39-.42-8.86,4.36-12.22,4.79-3.36,10.6-3.33,12.98,.06,2.38,3.39,.43,8.86-4.36,12.22-4.79,3.36-10.6,3.33-12.98-.06Z"/><path class="cy" d="M47.31,91.82c-2.33-3.32-.41-8.68,4.27-11.97,4.69-3.29,10.37-3.26,12.7,.06,2.33,3.32,.42,8.68-4.27,11.96-4.69,3.29-10.38,3.26-12.71-.06Z"/><path class="ch" d="M47.49,91.69c-2.28-3.25-.41-8.49,4.18-11.71,4.59-3.21,10.16-3.19,12.43,.06,2.28,3.25,.41,8.49-4.18,11.71-4.59,3.22-10.16,3.19-12.43-.06Z"/><path class="cj" d="M47.67,91.57c-2.23-3.18-.4-8.31,4.09-11.46,4.49-3.15,9.93-3.12,12.16,.05,2.23,3.18,.4,8.31-4.09,11.46-4.49,3.15-9.93,3.12-12.16-.05Z"/><path class="n" d="M47.85,91.44c-2.18-3.11-.39-8.12,4-11.2,4.39-3.08,9.71-3.05,11.89,.05,2.18,3.11,.39,8.12-4,11.2s-9.71,3.05-11.89-.05Z"/><path class="l" d="M48.03,91.31c-2.13-3.04-.38-7.94,3.91-10.95,4.29-3.01,9.49-2.98,11.62,.05,2.13,3.04,.38,7.94-3.91,10.95-4.29,3.01-9.49,2.98-11.62-.05Z"/><path class="fl" d="M48.22,91.19c-2.08-2.97-.37-7.76,3.82-10.7,4.19-2.94,9.27-2.91,11.35,.05,2.08,2.96,.37,7.75-3.82,10.69s-9.27,2.91-11.35-.05Z"/><path class="ak" d="M48.4,91.06c-2.03-2.89-.36-7.57,3.73-10.44s9.05-2.84,11.08,.05c2.03,2.9,.36,7.57-3.73,10.44-4.09,2.87-9.05,2.84-11.08-.05Z"/><path class="bo" d="M48.58,90.94c-1.98-2.83-.35-7.39,3.64-10.18,3.99-2.8,8.83-2.78,10.81,.05,1.98,2.82,.36,7.38-3.64,10.18-3.99,2.8-8.83,2.77-10.81-.05Z"/><path class="eu" d="M48.75,90.81c-1.93-2.75-.34-7.2,3.55-9.93,3.89-2.73,8.61-2.7,10.54,.05,1.93,2.75,.34,7.2-3.55,9.93-3.89,2.73-8.61,2.71-10.54-.05Z"/><path class="fc" d="M48.94,90.68c-1.88-2.69-.34-7.02,3.45-9.68,3.79-2.66,8.39-2.64,10.27,.05,1.88,2.68,.34,7.02-3.45,9.67-3.79,2.66-8.39,2.64-10.27-.05Z"/><path class="x" d="M49.12,90.55c-1.83-2.61-.33-6.83,3.36-9.42s8.17-2.57,10,.05c1.84,2.61,.33,6.83-3.36,9.42-3.69,2.59-8.17,2.57-10-.05Z"/><path class="ee" d="M49.3,90.43c-1.79-2.54-.32-6.65,3.27-9.16,3.59-2.52,7.95-2.5,9.73,.04,1.79,2.54,.32,6.65-3.27,9.16-3.59,2.52-7.95,2.5-9.73-.04Z"/><path class="ba" d="M49.48,90.3c-1.73-2.47-.31-6.46,3.18-8.91,3.49-2.45,7.73-2.43,9.46,.04,1.73,2.47,.31,6.46-3.18,8.91-3.49,2.45-7.73,2.43-9.46-.05Z"/><path class="ed" d="M49.66,90.17c-1.69-2.4-.3-6.28,3.09-8.66,3.39-2.38,7.5-2.36,9.19,.04,1.68,2.4,.3,6.28-3.09,8.66-3.39,2.38-7.5,2.36-9.19-.04Z"/><path class="db" d="M49.84,90.05c-1.64-2.33-.29-6.09,3-8.4,3.29-2.31,7.29-2.29,8.92,.04,1.64,2.33,.29,6.09-3,8.4-3.29,2.31-7.29,2.29-8.92-.04Z"/><path class="bq" d="M50.02,89.92c-1.59-2.26-.28-5.91,2.91-8.14s7.06-2.22,8.65,.04c1.59,2.26,.29,5.91-2.91,8.15-3.19,2.24-7.06,2.22-8.65-.04Z"/><path class="au" d="M50.2,89.79c-1.54-2.19-.27-5.72,2.82-7.89,3.09-2.17,6.84-2.15,8.38,.04,1.54,2.19,.27,5.73-2.82,7.89-3.09,2.17-6.84,2.15-8.38-.04Z"/><path class="fh" d="M50.38,89.67c-1.48-2.12-.27-5.54,2.73-7.64,3-2.1,6.62-2.08,8.11,.04,1.49,2.12,.27,5.54-2.73,7.64-2.99,2.1-6.62,2.08-8.11-.04Z"/><path class="dg" d="M50.56,89.54c-1.44-2.05-.26-5.36,2.64-7.38,2.89-2.03,6.4-2.01,7.84,.04,1.44,2.05,.26,5.36-2.63,7.38-2.89,2.03-6.41,2.01-7.84-.04Z"/><path class="eo" d="M50.74,89.42c-1.39-1.98-.25-5.17,2.54-7.13,2.8-1.96,6.18-1.95,7.57,.04,1.39,1.98,.25,5.17-2.55,7.12-2.79,1.96-6.18,1.95-7.57-.03Z"/><path class="br" d="M50.92,89.29c-1.34-1.91-.24-4.98,2.45-6.87,2.7-1.89,5.96-1.88,7.3,.03,1.34,1.91,.24,4.98-2.45,6.88-2.7,1.89-5.96,1.87-7.3-.04Z"/><path class="er" d="M51.1,89.16c-1.29-1.84-.23-4.8,2.36-6.62,2.59-1.82,5.74-1.8,7.03,.04,1.29,1.84,.23,4.8-2.36,6.62-2.59,1.82-5.74,1.8-7.03-.03Z"/><path class="fv" d="M51.29,89.03c-1.24-1.77-.22-4.61,2.27-6.36,2.5-1.75,5.52-1.73,6.76,.03s.22,4.62-2.27,6.36c-2.5,1.75-5.52,1.73-6.76-.03Z"/><path class="ap" d="M51.47,88.91c-1.19-1.7-.21-4.43,2.18-6.11,2.39-1.68,5.3-1.67,6.49,.03,1.19,1.7,.21,4.43-2.18,6.11-2.39,1.68-5.3,1.66-6.49-.03Z"/><path class="e`" d="M51.65,88.78c-1.14-1.62-.2-4.25,2.09-5.86,2.3-1.61,5.08-1.59,6.22,.03,1.14,1.62,.2,4.25-2.09,5.86-2.3,1.61-5.08,1.59-6.22-.03Z"/><path class="eh" d="M51.83,88.65c-1.09-1.55-.2-4.06,2-5.6,2.2-1.54,4.86-1.53,5.95,.03,1.09,1.55,.19,4.06-2,5.6-2.2,1.54-4.86,1.53-5.95-.03Z"/><path class="dy" d="M52,88.53c-1.04-1.48-.18-3.88,1.91-5.34,2.1-1.47,4.64-1.46,5.68,.03,1.04,1.48,.19,3.88-1.91,5.34-2.09,1.47-4.64,1.46-5.68-.03Z"/><path class="cx" d="M52.19,88.4c-.99-1.41-.18-3.69,1.82-5.09,2-1.4,4.41-1.39,5.41,.02,.99,1.41,.18,3.69-1.82,5.09-2,1.4-4.42,1.39-5.41-.02Z"/><path class="by" d="M52.37,88.28c-.94-1.34-.17-3.51,1.73-4.84,1.89-1.33,4.2-1.32,5.14,.03,.94,1.34,.17,3.51-1.73,4.84-1.89,1.33-4.2,1.32-5.14-.02Z"/><path class="ax" d="M52.55,88.15c-.89-1.27-.16-3.32,1.64-4.58,1.8-1.26,3.97-1.25,4.87,.02,.89,1.27,.16,3.32-1.64,4.58-1.8,1.26-3.97,1.25-4.87-.02Z"/><path class="s" d="M52.73,88.02c-.84-1.2-.15-3.14,1.54-4.33,1.7-1.19,3.75-1.18,4.6,.02,.84,1.2,.15,3.14-1.55,4.33-1.7,1.19-3.75,1.18-4.59-.02Z"/><path class="fr" d="M52.91,87.89c-.79-1.13-.14-2.95,1.45-4.07,1.6-1.12,3.53-1.11,4.32,.02s.14,2.95-1.45,4.07c-1.6,1.12-3.53,1.11-4.32-.02Z"/><path class="ea" d="M53.09,87.77c-.74-1.06-.13-2.77,1.36-3.82,1.5-1.05,3.31-1.04,4.05,.02,.74,1.06,.13,2.77-1.36,3.82-1.5,1.05-3.31,1.04-4.05-.02Z"/><path class="du" d="M53.27,87.64c-.69-.99-.12-2.59,1.27-3.57,1.4-.98,3.09-.97,3.79,.02,.69,.99,.12,2.58-1.27,3.56-1.39,.98-3.09,.97-3.79-.02Z"/><path class="ay" d="M53.45,87.51c-.64-.92-.11-2.4,1.18-3.31,1.3-.91,2.87-.9,3.51,.02,.65,.92,.12,2.4-1.18,3.31-1.3,.91-2.87,.9-3.52-.02Z"/><path class="fu" d="M53.63,87.39c-.6-.85-.11-2.21,1.09-3.05,1.2-.84,2.65-.83,3.24,.01,.59,.85,.11,2.22-1.09,3.06-1.2,.84-2.65,.83-3.24-.02Z"/><path class="ct" d="M53.81,87.26c-.55-.78-.1-2.03,1-2.8,1.1-.77,2.43-.76,2.97,.02,.55,.78,.1,2.03-1,2.8-1.1,.77-2.43,.76-2.97-.02Z"/><path class="fi" d="M53.99,87.13c-.5-.71-.09-1.85,.91-2.55,1-.7,2.21-.7,2.7,.01,.5,.71,.09,1.85-.91,2.55s-2.21,.7-2.7-.01Z"/><path class="el" d="M54.17,87.01c-.45-.64-.08-1.66,.82-2.29,.9-.63,1.99-.62,2.43,.01,.45,.64,.08,1.66-.82,2.29-.9,.63-1.98,.62-2.43,0Z"/><path class="dk" d="M54.36,86.88c-.4-.57-.07-1.48,.73-2.04,.8-.56,1.77-.55,2.16,0,.4,.57,.07,1.48-.73,2.04-.8,.56-1.77,.55-2.16-.01Z"/><path class="dh" d="M54.54,86.76c-.35-.5-.06-1.29,.64-1.79,.7-.49,1.54-.48,1.89,.01,.35,.49,.06,1.29-.64,1.78-.7,.49-1.54,.48-1.89,0Z"/><path class="eb" d="M54.72,86.63c-.3-.42-.05-1.11,.55-1.53,.6-.42,1.32-.41,1.62,0,.3,.43,.05,1.11-.55,1.53-.6,.42-1.32,.42-1.62,0Z"/><path class="ef" d="M54.9,86.5c-.25-.36-.04-.93,.46-1.27,.5-.35,1.1-.35,1.35,0,.25,.35,.04,.92-.46,1.27-.5,.35-1.1,.35-1.35,0Z"/><path class="cg" d="M55.08,86.37c-.2-.28-.03-.74,.37-1.02,.4-.28,.88-.28,1.08,0,.2,.28,.04,.74-.36,1.02-.4,.28-.88,.28-1.08,0Z"/><path class="fd" d="M55.26,86.25c-.15-.21-.03-.55,.27-.77,.3-.21,.66-.21,.81,0,.15,.21,.03,.55-.27,.77-.3,.21-.66,.21-.81,0Z"/><path class="fo" d="M55.44,86.12c-.1-.14-.02-.37,.18-.51,.2-.14,.44-.14,.54,0,.1,.14,.02,.37-.18,.51-.2,.14-.44,.14-.54,0Z"/><path class="fn" d="M55.62,85.99c-.05-.07,0-.18,.09-.25,.1-.07,.22-.07,.27,0,.05,.07,0,.18-.09,.25-.1,.07-.22,.07-.27,0Z"/></g><path class="ds" d="M80.56,69.56c4.8,20.1,3.63,40.9-10.48,49.48,28.22-14.14,34.69-57.64,11.63-108.07-1.72,6.02-8.16,16.45-16.51,23.24,6.38,8.96,12.19,22,15.36,35.35Z"/></g><g><path class="v" d="M42.6,123.54h0c-.53-.06-2.45-.32-2.56-1.93-4.69-1.8-10.95-7.56-15.07-12.45,4.78-5.26,14.04-11.34,22.78-15.57,4.36,9.53,8.43,22.08,7.95,27.28,7.33-2.71,15.55-7.25,20.4-11.25,5.23-17.43-3.37-50.8-29.49-85-10.03,4.06-19.96,8.79-28.09,13.69,3.75,8.28,11.21,23.21,16.66,32.7-9.81,5.46-19.18,13.34-23.09,18.63C4.91,75.64,2.06,60.59,2.11,49.99c-.83,2.81-1.34,5.91-1.63,8.39-2.95,24.6,7.84,51.92,26.19,60.87,1.54,.75,3.19,1.4,4.86,2,3.24,1.11,7.02,1.9,11.07,2.29Z"/><path class="et" d="M42.6,123.54h0c-.53-.06-2.45-.32-2.56-1.93-4.69-1.8-10.95-7.56-15.07-12.45,4.78-5.26,14.04-11.34,22.78-15.57,4.36,9.53,8.43,22.08,7.95,27.28,7.33-2.71,15.55-7.25,20.4-11.25,5.23-17.43-3.37-50.8-29.49-85-10.03,4.06-19.96,8.79-28.09,13.69,3.75,8.28,11.21,23.21,16.66,32.7-9.81,5.46-19.18,13.34-23.09,18.63C4.91,75.64,2.06,60.59,2.11,49.99c-.83,2.81-1.34,5.91-1.63,8.39-2.95,24.6,7.84,51.92,26.19,60.87,1.54,.75,3.19,1.4,4.86,2,3.24,1.11,7.02,1.9,11.07,2.29Z"/></g><path class="u" d="M76.11,109.62c2.01-6.69,1.97-15.73-.3-26.27-4.53,9.32-12.13,19.23-22.85,21.11-.27,.04-.54,.08-.8,.12,2.3,6.62,3.86,12.95,3.55,16.28,7.33-2.71,15.55-7.25,20.4-11.25Z"/></g></g><path class="fa" d="M168.43,45.06v49.7c0,5.32-8.72,6.11-13.89,6.11-2.34,0-4.75-.29-6.66-.89v-22.19l-11.12,.71v16.26c0,5.32-8.69,6.11-13.85,6.11-2.34,0-4.75-.29-6.66-.89V50.27c0-5.36,8.69-6.11,13.85-6.11,2.34,0,4.75,.29,6.66,.89v20.27l11.12-.68v-14.38c0-5.36,8.69-6.11,13.89-6.11,2.34,0,4.75,.29,6.66,.89"/><path class="fa" d="M200.07,45.06v49.7c0,5.32-8.69,6.11-13.85,6.11-2.34,0-4.75-.29-6.66-.89V50.27c0-5.36,8.69-6.11,13.89-6.11,2.3,0,4.71,.29,6.63,.89"/><path class="fa" d="M219.38,59.58l-12.25,1.13c-.59-2.96-.73-5.88-.73-8.04,0-6.32,3.17-7.93,10.82-8.07l35.62-.44c.49,2.3,.66,4.46,.66,6.5,0,6.58-2.34,8.59-8.27,8.59h-5.34v35.5c0,5.32-8.69,6.11-13.85,6.11-2.34,0-4.75-.29-6.66-.89V59.58Z"/><path class="fa" d="M301.7,44.24c.35,2.34,.49,4.08,.49,5.75,0,6.29-3.04,7.67-11.1,7.67h-11.27v8.31l20.31-.89c.21,1.35,.35,2.73,.35,4.01,0,6.71-1.95,8.94-10.78,8.94h-9.87v8.73l22.5-1.13c.21,1.28,.28,2.59,.28,3.76,0,7.1-2.16,10.47-9.84,10.47-.56,0-1.25,0-33.56-.04V52.33c0-6.39,2.69-7.46,10.54-7.6l31.96-.5Z"/><path class="w" d="M363.97,45.06v49.7c0,5.32-8.69,6.11-13.85,6.11-2.34,0-4.74-.29-6.66-.89V50.27c0-5.36,8.69-6.11,13.89-6.11,2.3,0,4.71,.29,6.63,.89"/><path class="w" d="M427.24,54.94v39.82c0,5.32-8.69,6.11-13.85,6.11-2.34,0-4.75-.29-6.66-.89V60.17c0-3.39-2.54-4.33-5.12-4.33-1.68,0-4.08,.43-6,1.46v37.45c0,5.32-8.69,6.11-13.85,6.11-2.34,0-4.75-.29-6.66-.89V50.59c0-5.68,7.92-6.36,13.36-6.36,1.85,0,3.56,.04,5.2,.32l.45,4.51c4.75-2.88,11.99-4.86,19.95-4.86,6.7,0,13.19,3.2,13.19,10.73"/><path class="w" d="M458.87,65.35c0-4.64,5.66-5.23,12.79-4.88,3.35,.16,6.11-7.63,6.44-12.82,.04-.65,.12-2.62,0-3.86-1.23-.11-3.07-.16-4.82-.11-8.27,.25-14.01,4.78-16.68,10.21l-1.42-9.57c-.97-.1-1.96-.16-2.94-.16-5.2,0-13.89,.75-13.89,6.11v49.7c1.92,.6,4.33,.89,6.66,.89,5.16,0,13.85-.78,13.85-6.11v-29.4Z"/><path class="w" d="M519.23,98.73c-5.48,3.05-13.08,3.84-18.95,3.84-4.26,0-7.57-.68-10.54-2.17-7.81-4.26-10.29-13.88-10.29-27.3,0-11,1.64-20.87,10.33-26.09,5.62-3.12,13.22-3.83,19.22-3.83,4.22,0,7.29,.6,10.26,2.16,8.06,4.15,10.29,13.7,10.29,27.3,0,10.97-1.64,20.88-10.33,26.09m-14.48-42.85c-1.74,0-3.28,.5-4.57,1.31-.52,1.84-1.01,7.13-1.01,15.83,0,13.06,.59,16.83,5.09,16.83,1.74,0,3.28-.5,4.57-1.35,.53-1.85,.98-7.13,.98-15.8,0-13.1-.52-16.83-5.06-16.83"/><path class="w" d="M311.59,50.67v50.15l-.37,.23c-2.06,1.3-5.02,3.81-6.41,5.75-1.91,2.66-4.36,6.82-4.07,12.73,.49,.01,.98,.02,1.48,.02,7.65,0,14.09-1.58,19.12-4.68,7.87-4.84,10.94-10.88,10.94-21.54V44.9c-1.78-.61-3.99-.92-6.6-.92-5.26,0-14.09,.87-14.09,6.69Z"/></g><text class="bx" transform="translate(310.82 28.8)"><tspan x="0" y="0">담보감정시스템</tspan></text></g></g></g></svg>