<svg xmlns="http://www.w3.org/2000/svg" xmlns:xlink="http://www.w3.org/1999/xlink" viewBox="0 0 529.56 112.83"><defs><style>.cls-1{fill:none;}.cls-2{isolation:isolate;}.cls-3{fill:#fff;}.cls-4{clip-path:url(#clip-path);}.cls-5{fill:#42a4dd;}.cls-6{fill:#43a4dd;}.cls-7{fill:#44a4dd;}.cls-8{fill:#45a5dd;}.cls-9{fill:#47a5dd;}.cls-10{fill:#48a5dd;}.cls-11{fill:#49a6dd;}.cls-12{fill:#4ba6dd;}.cls-13{fill:#4ca6de;}.cls-14{fill:#4da7de;}.cls-15{fill:#4ea7de;}.cls-16{fill:#50a7de;}.cls-17{fill:#51a8de;}.cls-18{fill:#52a8de;}.cls-19{fill:#54a9df;}.cls-20{fill:#55a9df;}.cls-21{fill:#56a9df;}.cls-22{fill:#58aadf;}.cls-23{fill:#59aadf;}.cls-24{fill:#5aabdf;}.cls-25{fill:#5babe0;}.cls-26{fill:#5dabe0;}.cls-27{fill:#5eace0;}.cls-28{fill:#5face0;}.cls-29{fill:#60ade0;}.cls-30{fill:#62ade0;}.cls-31{fill:#63aee1;}.cls-32{fill:#64aee1;}.cls-33{fill:#65afe1;}.cls-34{fill:#67afe1;}.cls-35{fill:#68afe1;}.cls-36{fill:#69b0e2;}.cls-37{fill:#6ab0e2;}.cls-38{fill:#6bb1e2;}.cls-39{fill:#6db1e2;}.cls-40{fill:#6eb2e2;}.cls-41{fill:#6fb2e2;}.cls-42{fill:#70b3e3;}.cls-43{fill:#72b3e3;}.cls-44{fill:#73b4e3;}.cls-45{fill:#74b4e3;}.cls-46{fill:#75b5e3;}.cls-47{fill:#76b5e4;}.cls-48{fill:#78b6e4;}.cls-49{fill:#79b6e4;}.cls-50{fill:#7ab7e4;}.cls-51{fill:#7bb7e4;}.cls-52{fill:#7cb8e5;}.cls-53{fill:#7eb8e5;}.cls-54{fill:#7fb9e5;}.cls-55{fill:#80b9e5;}.cls-56{fill:#81bae5;}.cls-57{fill:#82bae6;}.cls-58{fill:#84bbe6;}.cls-59{fill:#85bbe6;}.cls-60{fill:#86bce6;}.cls-61{fill:#87bde7;}.cls-62{fill:#88bde7;}.cls-63{fill:#89bee7;}.cls-64{fill:#8bbee7;}.cls-65{fill:#8cbfe7;}.cls-66{fill:#8dbfe8;}.cls-67{fill:#8ec0e8;}.cls-68{fill:#8fc0e8;}.cls-69{fill:#91c1e8;}.cls-70{fill:#92c1e8;}.cls-71{fill:#93c2e9;}.cls-72{fill:#94c3e9;}.cls-73{fill:#95c3e9;}.cls-74{fill:#96c4e9;}.cls-75{fill:#97c4e9;}.cls-76{fill:#99c5ea;}.cls-77{fill:#9ac5ea;}.cls-78{fill:#9bc6ea;}.cls-79{fill:#9cc6ea;}.cls-80{fill:#9dc7eb;}.cls-81{fill:#9ec8eb;}.cls-82{fill:#9fc8eb;}.cls-83{fill:#a0c9eb;}.cls-84{fill:#a2c9eb;}.cls-85{fill:#a3caec;}.cls-86{fill:#a4caec;}.cls-87{fill:#a5cbec;}.cls-88{fill:#a6ccec;}.cls-89{fill:#a7cced;}.cls-90{fill:#a8cded;}.cls-91{fill:#a9cded;}.cls-92{fill:#aaceed;}.cls-93{fill:#abceed;}.cls-94{fill:#adcfee;}.cls-95{fill:#aed0ee;}.cls-96{fill:#afd0ee;}.cls-97{fill:#b0d1ee;}.cls-98{fill:#b1d1ef;}.cls-99{fill:#b2d2ef;}.cls-100{fill:#b3d2ef;}.cls-101{fill:#b4d3ef;}.cls-102{fill:#b5d4ef;}.cls-103{fill:#b6d4f0;}.cls-104{fill:#b7d5f0;}.cls-105{fill:#b8d5f0;}.cls-106{fill:#b9d6f0;}.cls-107{fill:#bad7f0;}.cls-108{fill:#bbd7f1;}.cls-109{fill:#bcd8f1;}.cls-110{fill:#bed8f1;}.cls-111{fill:#bfd9f1;}.cls-112{fill:#c0d9f2;}.cls-113{fill:#c1daf2;}.cls-114{fill:#c2dbf2;}.cls-115{fill:#c3dbf2;}.cls-116{fill:#c4dcf2;}.cls-117{fill:#c5dcf3;}.cls-118{fill:#c6ddf3;}.cls-119{fill:#c7def3;}.cls-120{fill:#c8def3;}.cls-121{fill:#c9dff4;}.cls-122{fill:#cadff4;}.cls-123{fill:#cbe0f4;}.cls-124{fill:#cce1f4;}.cls-125{fill:#cde1f4;}.cls-126{fill:#cee2f5;}.cls-127{fill:#cfe2f5;}.cls-128{fill:#d0e3f5;}.cls-129{fill:#d1e4f5;}.cls-130{fill:#d2e4f6;}.cls-131{fill:#d3e5f6;}.cls-132{fill:#d4e5f6;}.cls-133{fill:#d5e6f6;}.cls-134{fill:#d6e7f7;}.cls-135{fill:#d7e7f7;}.cls-136{fill:#d8e8f7;}.cls-137{fill:#d9e8f7;}.cls-138{fill:#dae9f7;}.cls-139{fill:#dceaf8;}.cls-140{fill:#ddeaf8;}.cls-141{fill:#deebf8;}.cls-142{fill:#dfecf8;}.cls-143{fill:#e0ecf9;}.cls-144{fill:#e1edf9;}.cls-145{fill:#e2edf9;}.cls-146{fill:#e3eef9;}.cls-147{fill:#e4eff9;}.cls-148{fill:#e5effa;}.cls-149{fill:#e6f0fa;}.cls-150{fill:#e7f1fa;}.cls-151{fill:#e8f1fa;}.cls-152{fill:#e9f2fb;}.cls-153{fill:#eaf2fb;}.cls-154{fill:#ebf3fb;}.cls-155{fill:#ecf4fb;}.cls-156{fill:#edf4fb;}.cls-157{fill:#eef5fc;}.cls-158{fill:#eff5fc;}.cls-159{fill:#f0f6fc;}.cls-160{fill:#f1f7fc;}.cls-161{fill:#f2f7fd;}.cls-162{fill:#f3f8fd;}.cls-163{fill:#f4f8fd;}.cls-164{fill:#f4f9fd;}.cls-165{fill:#f6fafd;}.cls-166{fill:#f7fafe;}.cls-167{fill:url(#radial-gradient);}.cls-168,.cls-170{mix-blend-mode:multiply;}.cls-168{fill:url(#radial-gradient-2);}.cls-169{mix-blend-mode:screen;fill:url(#radial-gradient-3);}.cls-170,.cls-172{fill:#0090d4;}.cls-171{fill:#003389;}</style><clipPath id="clip-path"><path class="cls-1" d="M80.56,58.57C79,67.67,69.82,90.54,53,93.49c-12.6,2.21-25.72-6-29.17-12.07-3.65,7.5-1.33,22.5,7.75,28.86,10.36,3.54,26.32,3.9,38.55-2.21C84.19,99.49,85.36,78.68,80.56,58.57Z"/></clipPath><radialGradient id="radial-gradient" cx="626.92" cy="323.92" r="53.94" gradientTransform="translate(-347.5 -146.44) scale(0.69)" gradientUnits="userSpaceOnUse"><stop offset="0" stop-color="#fafcfe"/><stop offset="0.07" stop-color="#d8edf8"/><stop offset="0.25" stop-color="#8ccdec"/><stop offset="0.41" stop-color="#50b3e1"/><stop offset="0.54" stop-color="#25a0da"/><stop offset="0.64" stop-color="#0a94d6"/><stop offset="0.71" stop-color="#0090d4"/></radialGradient><radialGradient id="radial-gradient-2" cx="112.75" cy="166.25" r="57.06" gradientTransform="translate(-92.65 -140.84) scale(1.13)" gradientUnits="userSpaceOnUse"><stop offset="0" stop-color="#f9f9fc"/><stop offset="0.05" stop-color="#f2f2f8"/><stop offset="0.12" stop-color="#dddeed"/><stop offset="0.2" stop-color="#bcbddb"/><stop offset="0.29" stop-color="#8e90c2"/><stop offset="0.31" stop-color="#8789be"/><stop offset="0.34" stop-color="#777fb8"/><stop offset="0.43" stop-color="#4d64a7"/><stop offset="0.52" stop-color="#2b4f9a"/><stop offset="0.6" stop-color="#133f91"/><stop offset="0.68" stop-color="#05368b"/><stop offset="0.75" stop-color="#003389"/></radialGradient><radialGradient id="radial-gradient-3" cx="157" cy="192.31" r="44.32" xlink:href="#radial-gradient-2"/></defs><g class="cls-2"><g id="레이어_2" data-name="레이어 2"><g id="Layer_1" data-name="Layer 1"><path class="cls-3" d="M81.72,0C80,6,73.55,16.45,65.2,23.24c6.38,9,12.19,22,15.36,35.34a56,56,0,0,1-4.76,13.8C72.15,55.47,62.7,34.72,46.61,13.65A205.69,205.69,0,0,0,18.52,27.34C22.27,35.62,29.73,50.55,35.18,60,25.37,65.49,16,73.38,12.08,78.67c-7.17-14-10-29.05-10-39.65A53.25,53.25,0,0,0,.48,47.41C-2.46,72,8.32,99.33,26.67,108.28a51,51,0,0,0,4.86,2,47,47,0,0,0,9.69,2.14c9.22,1.1,20,.07,28.86-4.35C98.31,93.92,104.78,50.43,81.72,0ZM34.42,90.32a106.67,106.67,0,0,1,13.33-7.71c1.57,3.44,3.1,7.27,4.4,11h0A30.85,30.85,0,0,1,34.42,90.32Z"/><g class="cls-4"><rect class="cls-5" x="20.13" y="58.57" width="65.23" height="55.61"/><path class="cls-5" d="M26.54,95.41c-8-11.44-1.43-29.9,14.73-41.23v3.39H85.06V54.38c8,11.44,1.43,29.91-14.73,41.24S34.57,106.86,26.54,95.41Z"/><path class="cls-6" d="M26.72,95.29c-8-11.38-1.42-29.73,14.64-41v3.27H84.88V54.5c8,11.38,1.42,29.73-14.64,41S34.7,106.66,26.72,95.29Z"/><path class="cls-7" d="M26.9,95.16C19,83.86,25.49,65.62,41.45,54.43v3.14H84.7V54.63c7.92,11.3,1.41,29.54-14.55,40.73S34.83,106.47,26.9,95.16Z"/><path class="cls-8" d="M27.08,95c-7.87-11.23-1.4-29.36,14.46-40.48v3h43V54.76C92.4,66,85.92,84.11,70.06,95.23S35,106.27,27.08,95Z"/><path class="cls-9" d="M27.26,94.91c-7.83-11.16-1.4-29.17,14.37-40.22v2.88H84.34V54.88C92.16,66.05,85.73,84.06,70,95.11S35.09,106.07,27.26,94.91Z"/><path class="cls-10" d="M27.45,94.78c-7.79-11.09-1.39-29,14.27-40v2.76H84.15V55c7.78,11.09,1.39,29-14.27,40S35.22,105.88,27.45,94.78Z"/><path class="cls-11" d="M27.63,94.66c-7.73-11-1.38-28.8,14.18-39.72v2.63H84V55.14c7.73,11,1.39,28.8-14.18,39.71S35.35,105.68,27.63,94.66Z"/><path class="cls-12" d="M27.81,94.53c-7.68-11-1.38-28.62,14.09-39.46v2.5H83.79v-2.3c7.68,10.95,1.37,28.61-14.09,39.45S35.49,105.48,27.81,94.53Z"/><path class="cls-13" d="M28,94.4C20.36,83.52,26.62,66,42,55.2v2.37H83.61V55.39c7.63,10.88,1.36,28.43-14,39.21S35.61,105.28,28,94.4Z"/><path class="cls-14" d="M28.17,94.28c-7.58-10.81-1.36-28.25,13.91-39v2.25H83.43v-2C91,66.33,84.79,83.77,69.52,94.47S35.75,105.09,28.17,94.28Z"/><path class="cls-15" d="M28.35,94.15C20.82,83.41,27,66.09,42.16,55.45v2.12H83.25V55.65c7.53,10.73,1.35,28.06-13.82,38.69S35.88,104.89,28.35,94.15Z"/><path class="cls-16" d="M28.53,94c-7.48-10.66-1.34-27.87,13.72-38.44v2H83.07v-1.8c7.48,10.67,1.34,27.88-13.73,38.44S36,104.69,28.53,94Z"/><path class="cls-17" d="M28.71,93.9c-7.43-10.6-1.33-27.7,13.63-38.19v1.86H82.89V55.9c7.43,10.6,1.33,27.69-13.64,38.19S36.14,104.49,28.71,93.9Z"/><path class="cls-18" d="M28.89,93.77c-7.38-10.53-1.32-27.51,13.54-37.93v1.73H82.71V56C90.09,66.55,84,83.54,69.16,94S36.27,104.3,28.89,93.77Z"/><path class="cls-19" d="M29.07,93.64C21.74,83.19,27.76,66.32,42.52,56v1.6h40V56.15c7.33,10.46,1.31,27.33-13.45,37.68S36.4,104.1,29.07,93.64Z"/><path class="cls-20" d="M29.25,93.52C22,83.13,28,66.38,42.61,56.09v1.48H82.35V56.28C89.63,66.66,83.65,83.42,69,93.7S36.53,103.9,29.25,93.52Z"/><path class="cls-21" d="M29.43,93.39c-7.23-10.32-1.29-27,13.27-37.17v1.35H82.17V56.41c7.23,10.31,1.29,27-13.27,37.16S36.66,103.7,29.43,93.39Z"/><path class="cls-22" d="M29.61,93.26C22.43,83,28.33,66.49,42.79,56.35v1.22H82v-1c7.18,10.24,1.28,26.77-13.18,36.92S36.79,103.51,29.61,93.26Z"/><path class="cls-23" d="M29.79,93.14C22.66,83,28.52,66.55,42.88,56.48v1.09H81.81v-.91c7.13,10.17,1.27,26.58-13.09,36.66S36.93,103.31,29.79,93.14Z"/><path class="cls-24" d="M30,93c-7.08-10.1-1.26-26.4,13-36.4v1H81.63v-.78c7.08,10.1,1.26,26.4-13,36.4S37.06,103.11,30,93Z"/><path class="cls-25" d="M30.15,92.88c-7-10-1.25-26.22,12.91-36.15v.84H81.45v-.66c7,10,1.25,26.22-12.91,36.15S37.19,102.91,30.15,92.88Z"/><path class="cls-26" d="M30.33,92.76c-7-10-1.24-26,12.82-35.9v.71H81.27V57c7,10,1.24,26-12.82,35.89S37.32,102.72,30.33,92.76Z"/><path class="cls-27" d="M30.52,92.63C23.58,82.74,29.28,66.78,43.24,57v.58H81.08v-.41C88,67.06,82.33,83,68.36,92.81S37.45,102.52,30.52,92.63Z"/><path class="cls-28" d="M30.7,92.5c-6.89-9.82-1.23-25.66,12.63-35.38v.45H80.9v-.28C87.79,67.11,82.13,83,68.27,92.68S37.58,102.32,30.7,92.5Z"/><path class="cls-29" d="M30.88,92.38C24,82.63,29.65,66.9,43.42,57.25v.32h37.3v-.15c6.84,9.75,1.22,25.48-12.54,35.13S37.71,102.13,30.88,92.38Z"/><path class="cls-30" d="M31.06,92.25C24.27,82.57,29.84,67,43.51,57.37v.2h37v0c6.79,9.68,1.21,25.3-12.45,34.88S37.84,101.93,31.06,92.25Z"/><path class="cls-31" d="M31.24,92.12C24.5,82.52,30,67,43.6,57.5v.07H73.68V52.25a16,16,0,0,1,6.68,5.42C87.1,67.28,81.57,82.78,68,92.29S38,101.73,31.24,92.12Z"/><path class="cls-32" d="M31.42,92c-6.69-9.54-1.2-24.93,12.27-34.37a40.5,40.5,0,0,1,10.44-5.3v5.24H64.48v-7c6.6,0,12.36,2.44,15.7,7.21,6.69,9.54,1.2,24.92-12.27,34.36S38.11,101.53,31.42,92Z"/><path class="cls-33" d="M31.6,91.87C25,82.4,30.41,67.13,43.78,57.76a36.51,36.51,0,0,1,20.63-7c6.56,0,12.27,2.42,15.59,7.16C86.64,67.39,81.18,82.66,67.82,92S38.24,101.34,31.6,91.87Z"/><path class="cls-34" d="M31.78,91.74c-6.59-9.39-1.18-24.55,12.09-33.86A36.16,36.16,0,0,1,64.35,51c6.5,0,12.17,2.39,15.47,7.09,6.59,9.4,1.18,24.56-12.09,33.86S38.37,101.14,31.78,91.74Z"/><path class="cls-35" d="M32,91.62C25.42,82.29,30.79,67.25,44,58a35.94,35.94,0,0,1,20.33-6.87c6.45,0,12.08,2.38,15.35,7,6.54,9.32,1.17,24.37-12,33.6S38.5,100.94,32,91.62Z"/><path class="cls-36" d="M32.14,91.49C25.65,82.23,31,67.31,44.05,58.14a35.62,35.62,0,0,1,20.17-6.82c6.41,0,12,2.36,15.24,7C86,67.56,80.62,82.49,67.55,91.66S38.63,100.74,32.14,91.49Z"/><path class="cls-37" d="M32.32,91.36c-6.44-9.18-1.15-24,11.82-33.09a35.29,35.29,0,0,1,20-6.77c6.36,0,11.91,2.34,15.13,6.93,6.44,9.19,1.15,24-11.82,33.1S38.76,100.55,32.32,91.36Z"/><path class="cls-38" d="M32.5,91.23c-6.39-9.11-1.14-23.81,11.73-32.83a35,35,0,0,1,19.86-6.72c6.31,0,11.81,2.32,15,6.88,6.39,9.11,1.14,23.82-11.73,32.84S38.89,100.35,32.5,91.23Z"/><path class="cls-39" d="M32.68,91.11c-6.34-9-1.13-23.63,11.64-32.59A34.84,34.84,0,0,1,64,51.86c6.26,0,11.72,2.3,14.89,6.82,6.34,9.05,1.13,23.64-11.64,32.59S39,100.15,32.68,91.11Z"/><path class="cls-40" d="M32.86,91c-6.29-9-1.12-23.44,11.55-32.33A34.52,34.52,0,0,1,64,52c6.22,0,11.63,2.28,14.78,6.77,6.29,9,1.12,23.45-11.55,32.33S39.15,100,32.86,91Z"/><path class="cls-41" d="M33,90.86C26.8,82,31.93,67.59,44.5,58.78a34.22,34.22,0,0,1,19.4-6.56c6.16,0,11.53,2.27,14.66,6.72C84.8,67.84,79.67,82.2,67.1,91S39.29,99.76,33,90.86Z"/><path class="cls-42" d="M33.22,90.73C27,81.9,32.12,67.65,44.59,58.91A34,34,0,0,1,63.83,52.4c6.12,0,11.45,2.25,14.55,6.66C84.57,67.9,79.48,82.14,67,90.89S39.42,99.56,33.22,90.73Z"/><path class="cls-43" d="M33.4,90.6C27.26,81.84,32.31,67.71,44.68,59a33.75,33.75,0,0,1,19.09-6.47c6.07,0,11.35,2.24,14.43,6.62,6.14,8.76,1.09,22.9-11.28,31.57S39.55,99.36,33.4,90.6Z"/><path class="cls-44" d="M33.59,90.48c-6.1-8.69-1.09-22.71,11.18-31.32A33.51,33.51,0,0,1,63.7,52.75c6,0,11.27,2.22,14.31,6.57C84.11,68,79.1,82,66.83,90.63S39.68,99.16,33.59,90.48Z"/><path class="cls-45" d="M33.77,90.35c-6.05-8.62-1.09-22.53,11.09-31.06s26.93-8.47,33,.16S78.91,82,66.74,90.5,39.81,99,33.77,90.35Z"/><path class="cls-46" d="M34,90.22c-6-8.54-1.07-22.34,11-30.8s26.71-8.4,32.7.15,1.07,22.34-11,30.81S39.94,98.77,34,90.22Z"/><path class="cls-47" d="M34.13,90.1c-6-8.48-1.06-22.16,10.91-30.55s26.49-8.33,32.43.15,1.07,22.15-10.91,30.55S40.07,98.57,34.13,90.1Z"/><path class="cls-48" d="M34.31,90c-5.9-8.41-1.06-22,10.82-30.29s26.27-8.26,32.16.14,1,22-10.82,30.3S40.2,98.38,34.31,90Z"/><path class="cls-49" d="M34.49,89.84c-5.85-8.33-1.05-21.78,10.73-30s26.05-8.2,31.89.14,1,21.79-10.73,30S40.33,98.18,34.49,89.84Z"/><path class="cls-50" d="M34.67,89.72c-5.8-8.27-1-21.6,10.63-29.79s25.83-8.12,31.63.15,1,21.6-10.64,29.78S40.47,98,34.67,89.72Z"/><path class="cls-51" d="M34.85,89.59c-5.75-8.19-1-21.42,10.55-29.53S71,52,76.75,60.2s1,21.42-10.54,29.53S40.6,97.79,34.85,89.59Z"/><path class="cls-52" d="M35,89.46c-5.7-8.12-1-21.23,10.45-29.27s25.39-8,31.09.14,1,21.23-10.46,29.28S40.73,97.59,35,89.46Z"/><path class="cls-53" d="M35.21,89.34c-5.65-8.06-1-21,10.37-29s25.16-7.9,30.81.15,1,21-10.36,29S40.86,97.39,35.21,89.34Z"/><path class="cls-54" d="M35.39,89.21c-5.6-8-1-20.86,10.27-28.77s25-7.84,30.55.15,1,20.86-10.27,28.76S41,97.19,35.39,89.21Z"/><path class="cls-55" d="M35.57,89.08c-5.55-7.91-1-20.67,10.18-28.51S70.48,52.8,76,60.71s1,20.68-10.18,28.51S41.12,97,35.57,89.08Z"/><path class="cls-56" d="M35.75,89c-5.5-7.85-1-20.5,10.09-28.26s24.51-7.7,30,.14,1,20.49-10.09,28.25S41.25,96.8,35.75,89Z"/><path class="cls-57" d="M35.93,88.83c-5.45-7.77-1-20.31,10-28S70.22,53.2,75.66,61s1,20.3-10,28S41.38,96.6,35.93,88.83Z"/><path class="cls-58" d="M36.11,88.7C30.71,81,35.15,68.58,46,61s24.07-7.56,29.47.14,1,20.13-9.91,27.75S41.51,96.4,36.11,88.7Z"/><path class="cls-59" d="M36.29,88.58c-5.35-7.63-.95-19.94,9.82-27.5s23.84-7.49,29.2.14,1,19.94-9.82,27.49S41.65,96.21,36.29,88.58Z"/><path class="cls-60" d="M36.47,88.45c-5.3-7.56-.94-19.75,9.73-27.24s23.63-7.42,28.93.13.94,19.76-9.73,27.25S41.78,96,36.47,88.45Z"/><path class="cls-61" d="M36.66,88.32c-5.26-7.48-.94-19.57,9.63-27s23.4-7.36,28.65.13.94,19.57-9.63,27S41.91,95.81,36.66,88.32Z"/><path class="cls-62" d="M36.84,88.2c-5.21-7.42-.93-19.39,9.54-26.73s23.18-7.29,28.38.13S75.69,81,65.22,88.33,42,95.61,36.84,88.2Z"/><path class="cls-63" d="M37,88.07c-5.16-7.35-.92-19.2,9.45-26.48s23-7.21,28.11.14.92,19.2-9.45,26.47S42.17,95.42,37,88.07Z"/><path class="cls-64" d="M37.2,87.94c-5.11-7.27-.91-19,9.36-26.22s22.74-7.15,27.84.13.91,19-9.36,26.22S42.3,95.22,37.2,87.94Z"/><path class="cls-65" d="M37.38,87.82c-5.05-7.21-.91-18.84,9.27-26s22.52-7.08,27.57.13.9,18.83-9.27,26S42.43,95,37.38,87.82Z"/><path class="cls-66" d="M37.56,87.69c-5-7.13-.9-18.65,9.18-25.71S69,55,74,62.11s.89,18.64-9.18,25.71S42.56,94.82,37.56,87.69Z"/><path class="cls-67" d="M37.74,87.56c-5-7.06-.88-18.46,9.09-25.45s22.08-6.94,27,.12.89,18.47-9.09,25.46S42.69,94.63,37.74,87.56Z"/><path class="cls-68" d="M37.92,87.44c-4.91-7-.88-18.28,9-25.21s21.85-6.87,26.76.13.88,18.28-9,25.2S42.83,94.43,37.92,87.44Z"/><path class="cls-69" d="M38.1,87.31c-4.85-6.92-.87-18.09,8.91-25s21.64-6.8,26.49.12.86,18.1-8.91,25S43,94.23,38.1,87.31Z"/><path class="cls-70" d="M38.28,87.18c-4.81-6.85-.86-17.91,8.82-24.69s21.41-6.73,26.22.12.86,17.91-8.82,24.7S43.09,94,38.28,87.18Z"/><path class="cls-71" d="M38.46,87.06c-4.76-6.79-.85-17.73,8.73-24.44s21.19-6.66,26,.12S74,80.46,64.41,87.18,43.22,93.84,38.46,87.06Z"/><path class="cls-72" d="M38.64,86.93c-4.71-6.71-.84-17.54,8.64-24.18s21-6.6,25.68.11.84,17.54-8.64,24.19S43.35,93.64,38.64,86.93Z"/><path class="cls-73" d="M38.82,86.81c-4.66-6.65-.83-17.36,8.55-23.94s20.75-6.52,25.41.12.83,17.35-8.55,23.93S43.48,93.45,38.82,86.81Z"/><path class="cls-74" d="M39,86.68c-4.6-6.57-.82-17.17,8.46-23.68s20.53-6.45,25.13.12.83,17.17-8.45,23.67S43.61,93.25,39,86.68Z"/><path class="cls-75" d="M39.18,86.55c-4.55-6.5-.81-17,8.37-23.42s20.31-6.38,24.86.11.82,17-8.36,23.42S43.74,93.05,39.18,86.55Z"/><path class="cls-76" d="M39.36,86.42c-4.5-6.43-.8-16.8,8.28-23.16s20.09-6.32,24.6.11S73,80.17,64,86.54,43.87,92.85,39.36,86.42Z"/><path class="cls-77" d="M39.54,86.3c-4.45-6.36-.79-16.62,8.19-22.92s19.86-6.24,24.33.12.79,16.61-8.19,22.91S44,92.66,39.54,86.3Z"/><path class="cls-78" d="M39.73,86.17c-4.41-6.29-.79-16.43,8.09-22.66s19.65-6.17,24.05.12.79,16.43-8.09,22.65S44.13,92.46,39.73,86.17Z"/><path class="cls-79" d="M39.91,86c-4.36-6.21-.78-16.24,8-22.4s19.43-6.1,23.79.11.78,16.25-8,22.4S44.27,92.26,39.91,86Z"/><path class="cls-80" d="M40.09,85.92c-4.31-6.15-.77-16.06,7.91-22.15s19.2-6,23.51.11.77,16.06-7.9,22.15S44.4,92.06,40.09,85.92Z"/><path class="cls-81" d="M40.27,85.79C36,79.72,39.5,69.91,48.08,63.9s19-6,23.25.1.76,15.88-7.82,21.9S44.53,91.87,40.27,85.79Z"/><path class="cls-82" d="M40.45,85.66C36.24,79.66,39.7,70,48.18,64s18.76-5.89,23,.11.75,15.69-7.72,21.64S44.66,91.67,40.45,85.66Z"/><path class="cls-83" d="M40.63,85.54C36.47,79.6,39.89,70,48.26,64.15s18.55-5.83,22.71.11.75,15.51-7.63,21.38S44.79,91.47,40.63,85.54Z"/><path class="cls-84" d="M40.81,85.41c-4.11-5.86-.73-15.32,7.54-21.13s18.33-5.76,22.44.1.73,15.33-7.54,21.14S44.92,91.27,40.81,85.41Z"/><path class="cls-85" d="M41,85.28c-4.06-5.79-.73-15.13,7.45-20.87s18.11-5.69,22.17.1.72,15.14-7.45,20.88S45.05,91.08,41,85.28Z"/><path class="cls-86" d="M41.17,85.16c-4-5.73-.72-15,7.36-20.62s17.88-5.63,21.9.1.72,15-7.36,20.62S45.18,90.88,41.17,85.16Z"/><path class="cls-87" d="M41.35,85c-4-5.65-.7-14.77,7.27-20.37s17.67-5.55,21.63.11S71,79.54,63,85.13,45.31,90.68,41.35,85Z"/><path class="cls-88" d="M41.53,84.9c-3.91-5.58-.7-14.58,7.18-20.11s17.44-5.48,21.36.1.7,14.59-7.18,20.11S45.45,90.48,41.53,84.9Z"/><path class="cls-89" d="M41.71,84.78c-3.86-5.51-.69-14.4,7.09-19.86S66,59.51,69.89,65s.69,14.4-7.09,19.86S45.58,90.29,41.71,84.78Z"/><path class="cls-90" d="M41.89,84.65c-3.81-5.44-.68-14.22,7-19.6s17-5.35,20.82.1.68,14.21-7,19.6S45.71,90.09,41.89,84.65Z"/><path class="cls-91" d="M42.08,84.52c-3.77-5.37-.68-14,6.9-19.34s16.78-5.28,20.54.09.68,14-6.9,19.35S45.84,89.89,42.08,84.52Z"/><path class="cls-92" d="M42.25,84.4c-3.71-5.3-.66-13.85,6.82-19.09s16.56-5.21,20.27.09S70,79.24,62.53,84.49,46,89.7,42.25,84.4Z"/><path class="cls-93" d="M42.43,84.27c-3.66-5.23-.65-13.66,6.73-18.84s16.34-5.13,20,.09.66,13.67-6.72,18.84S46.1,89.5,42.43,84.27Z"/><path class="cls-94" d="M42.61,84.15C39,79,42,70.66,49.25,65.56s16.12-5.07,19.74.09.64,13.48-6.64,18.58S46.23,89.3,42.61,84.15Z"/><path class="cls-95" d="M42.8,84c-3.57-5.09-.64-13.3,6.54-18.33s15.9-5,19.46.09.64,13.29-6.54,18.33S46.36,89.1,42.8,84Z"/><path class="cls-96" d="M43,83.89c-3.52-5-.63-13.11,6.45-18.07s15.68-4.93,19.19.09S69.25,79,62.17,84,46.49,88.91,43,83.89Z"/><path class="cls-97" d="M43.16,83.76c-3.47-4.94-.62-12.92,6.36-17.82S65,61.09,68.44,66,69.06,79,62.08,83.85,46.63,88.71,43.16,83.76Z"/><path class="cls-98" d="M43.34,83.64c-3.42-4.88-.61-12.74,6.27-17.57s15.23-4.79,18.65.09S68.87,78.9,62,83.72,46.75,88.51,43.34,83.64Z"/><path class="cls-99" d="M43.52,83.51c-3.37-4.8-.6-12.55,6.18-17.31s15-4.72,18.38.09.6,12.55-6.18,17.3S46.89,88.31,43.52,83.51Z"/><path class="cls-100" d="M43.7,83.38c-3.32-4.73-.59-12.37,6.09-17s14.79-4.65,18.11.08.59,12.37-6.09,17.06S47,88.12,43.7,83.38Z"/><path class="cls-101" d="M43.88,83.26c-3.27-4.67-.59-12.19,6-16.81s14.57-4.57,17.84.09.58,12.18-6,16.8S47.15,87.92,43.88,83.26Z"/><path class="cls-102" d="M44.06,83.13c-3.22-4.59-.57-12,5.91-16.55s14.35-4.51,17.57.08.57,12-5.91,16.55S47.28,87.72,44.06,83.13Z"/><path class="cls-103" d="M44.24,83c-3.17-4.52-.56-11.81,5.82-16.29s14.13-4.44,17.3.08.57,11.82-5.82,16.29S47.41,87.52,44.24,83Z"/><path class="cls-104" d="M44.42,82.88c-3.12-4.45-.56-11.63,5.73-16s13.91-4.37,17,.08.56,11.63-5.73,16S47.54,87.33,44.42,82.88Z"/><path class="cls-105" d="M44.6,82.75c-3.07-4.38-.55-11.44,5.64-15.78S63.93,62.66,67,67s.54,11.45-5.64,15.79S47.67,87.13,44.6,82.75Z"/><path class="cls-106" d="M44.78,82.63c-3-4.32-.54-11.27,5.55-15.54s13.46-4.23,16.49.08.54,11.26-5.55,15.53S47.81,86.93,44.78,82.63Z"/><path class="cls-107" d="M45,82.5c-3-4.24-.53-11.08,5.46-15.28s13.24-4.16,16.22.08.53,11.08-5.46,15.27S47.93,86.73,45,82.5Z"/><path class="cls-108" d="M45.15,82.37c-2.93-4.17-.53-10.89,5.35-15s13-4.09,16,.07.53,10.9-5.36,15S48.07,86.54,45.15,82.37Z"/><path class="cls-109" d="M45.33,82.24c-2.88-4.09-.52-10.7,5.27-14.76s12.8-4,15.67.07S66.79,78.26,61,82.32,48.2,86.34,45.33,82.24Z"/><path class="cls-110" d="M45.5,82.12c-2.82-4-.5-10.53,5.18-14.51s12.59-4,15.41.07.51,10.52-5.18,14.51S48.33,86.15,45.5,82.12Z"/><path class="cls-111" d="M45.68,82c-2.77-3.95-.49-10.34,5.09-14.26s12.37-3.88,15.14.08.5,10.34-5.08,14.25S48.46,86,45.68,82Z"/><path class="cls-112" d="M45.87,81.86c-2.73-3.88-.49-10.15,5-14s12.15-3.81,14.87.07.49,10.16-5,14S48.59,85.75,45.87,81.86Z"/><path class="cls-113" d="M46.05,81.74c-2.68-3.82-.48-10,4.9-13.75s11.93-3.75,14.6.07.48,10-4.9,13.75S48.72,85.55,46.05,81.74Z"/><path class="cls-114" d="M46.23,81.61c-2.63-3.74-.47-9.79,4.81-13.49s11.71-3.68,14.33.06.47,9.79-4.81,13.5S48.85,85.36,46.23,81.61Z"/><path class="cls-115" d="M46.41,81.48c-2.58-3.67-.46-9.6,4.72-13.23s11.48-3.61,14.06.06.46,9.6-4.72,13.24S49,85.16,46.41,81.48Z"/><path class="cls-116" d="M46.59,81.36c-2.53-3.61-.45-9.42,4.63-13s11.27-3.54,13.79.06.45,9.41-4.63,13S49.11,85,46.59,81.36Z"/><path class="cls-117" d="M46.77,81.23C44.29,77.7,46.33,72,51.31,68.5s11-3.47,13.52.06.44,9.24-4.54,12.73S49.25,84.76,46.77,81.23Z"/><path class="cls-118" d="M47,81.1c-2.43-3.46-.43-9,4.45-12.47s10.82-3.4,13.25.06.43,9-4.45,12.47S49.38,84.57,47,81.1Z"/><path class="cls-119" d="M47.13,81c-2.38-3.39-.42-8.87,4.36-12.22s10.6-3.33,13,.06S64.9,77.68,60.11,81,49.51,84.37,47.13,81Z"/><path class="cls-120" d="M47.31,80.85c-2.33-3.32-.41-8.68,4.27-12S62,65.63,64.29,69s.41,8.67-4.27,12S49.64,84.17,47.31,80.85Z"/><path class="cls-121" d="M47.49,80.72c-2.28-3.25-.41-8.49,4.18-11.71s10.16-3.19,12.44.06.4,8.49-4.18,11.71S49.77,84,47.49,80.72Z"/><path class="cls-122" d="M47.67,80.6c-2.23-3.18-.4-8.31,4.09-11.46S61.7,66,63.93,69.2s.4,8.3-4.09,11.45S49.9,83.78,47.67,80.6Z"/><path class="cls-123" d="M47.85,80.47c-2.18-3.11-.38-8.12,4-11.2s9.72-3,11.9,0,.39,8.13-4,11.2S50,83.58,47.85,80.47Z"/><path class="cls-124" d="M48,80.34c-2.13-3-.38-7.93,3.91-10.94s9.49-3,11.63,0,.38,7.94-3.91,11S50.16,83.38,48,80.34Z"/><path class="cls-125" d="M48.22,80.22c-2.09-3-.38-7.76,3.81-10.7s9.28-2.91,11.35.06.37,7.75-3.81,10.69S50.29,83.18,48.22,80.22Z"/><path class="cls-126" d="M48.4,80.09c-2-2.89-.37-7.57,3.72-10.44s9.05-2.84,11.08,0,.37,7.57-3.72,10.44S50.43,83,48.4,80.09Z"/><path class="cls-127" d="M48.58,80c-2-2.83-.36-7.39,3.63-10.19S61,67,63,69.83s.36,7.39-3.63,10.19S50.56,82.79,48.58,80Z"/><path class="cls-128" d="M48.75,79.84c-1.92-2.76-.34-7.2,3.55-9.93s8.61-2.71,10.54,0,.35,7.2-3.54,9.93S50.69,82.59,48.75,79.84Z"/><path class="cls-129" d="M48.94,79.71c-1.88-2.69-.34-7,3.45-9.67s8.39-2.64,10.27,0,.34,7-3.45,9.67S50.82,82.4,48.94,79.71Z"/><path class="cls-130" d="M49.12,79.58c-1.83-2.61-.33-6.83,3.36-9.42s8.17-2.56,10,0,.33,6.83-3.36,9.42S51,82.2,49.12,79.58Z"/><path class="cls-131" d="M49.3,79.46c-1.79-2.55-.32-6.65,3.27-9.17s8-2.5,9.73,0S62.62,77,59,79.5,51.08,82,49.3,79.46Z"/><path class="cls-132" d="M49.48,79.33c-1.74-2.47-.31-6.46,3.18-8.91s7.73-2.43,9.46,0,.31,6.46-3.18,8.91S51.21,81.81,49.48,79.33Z"/><path class="cls-133" d="M49.66,79.2c-1.69-2.4-.3-6.27,3.09-8.65s7.5-2.36,9.19,0,.3,6.28-3.09,8.66S51.34,81.61,49.66,79.2Z"/><path class="cls-134" d="M49.84,79.08c-1.64-2.33-.29-6.1,3-8.4s7.29-2.29,8.92,0,.29,6.09-3,8.4S51.47,81.41,49.84,79.08Z"/><path class="cls-135" d="M50,79c-1.59-2.26-.28-5.91,2.91-8.14s7.06-2.23,8.65,0,.28,5.91-2.91,8.15S51.61,81.21,50,79Z"/><path class="cls-136" d="M50.2,78.82c-1.54-2.19-.27-5.72,2.82-7.89s6.84-2.15,8.38,0,.27,5.73-2.82,7.89S51.74,81,50.2,78.82Z"/><path class="cls-137" d="M50.38,78.7c-1.48-2.12-.27-5.54,2.73-7.64s6.62-2.08,8.11,0,.26,5.54-2.73,7.63S51.87,80.82,50.38,78.7Z"/><path class="cls-138" d="M50.56,78.57c-1.43-2-.25-5.35,2.64-7.38s6.4-2,7.84,0,.25,5.36-2.64,7.39S52,80.62,50.56,78.57Z"/><path class="cls-139" d="M50.74,78.45c-1.38-2-.24-5.18,2.55-7.13s6.18-1.95,7.57,0,.25,5.17-2.55,7.13S52.13,80.42,50.74,78.45Z"/><path class="cls-140" d="M50.92,78.32c-1.33-1.91-.24-5,2.46-6.87s6-1.88,7.3,0,.23,5-2.46,6.87S52.26,80.22,50.92,78.32Z"/><path class="cls-141" d="M51.1,78.19c-1.28-1.84-.23-4.8,2.37-6.62s5.74-1.8,7,0,.22,4.8-2.37,6.61S52.39,80,51.1,78.19Z"/><path class="cls-142" d="M51.29,78.06c-1.25-1.76-.23-4.61,2.27-6.36s5.52-1.73,6.75,0,.23,4.62-2.27,6.36S52.52,79.83,51.29,78.06Z"/><path class="cls-143" d="M51.47,77.94c-1.19-1.7-.22-4.43,2.18-6.11s5.3-1.67,6.48,0S60.35,76.29,58,78,52.65,79.63,51.47,77.94Z"/><path class="cls-144" d="M51.65,77.81c-1.15-1.63-.21-4.25,2.09-5.86s5.07-1.59,6.21,0,.21,4.25-2.09,5.86S52.79,79.43,51.65,77.81Z"/><path class="cls-145" d="M51.83,77.68c-1.09-1.55-.2-4.06,2-5.6s4.85-1.52,5.94,0,.2,4.06-2,5.6S52.91,79.24,51.83,77.68Z"/><path class="cls-146" d="M52,77.56c-1-1.49-.18-3.88,1.91-5.35s4.64-1.46,5.68,0,.19,3.87-1.91,5.34S53.05,79,52,77.56Z"/><path class="cls-147" d="M52.19,77.43C51.2,76,52,73.74,54,72.34s4.42-1.39,5.41,0,.18,3.7-1.82,5.09S53.18,78.84,52.19,77.43Z"/><path class="cls-148" d="M52.37,77.31c-.94-1.35-.17-3.51,1.72-4.84s4.2-1.32,5.14,0S59.4,76,57.5,77.33,53.31,78.65,52.37,77.31Z"/><path class="cls-149" d="M52.55,77.18c-.89-1.27-.16-3.33,1.63-4.59s4-1.25,4.87,0,.16,3.32-1.64,4.58S53.44,78.45,52.55,77.18Z"/><path class="cls-150" d="M52.73,77.05c-.84-1.2-.15-3.14,1.54-4.33s3.76-1.18,4.6,0,.15,3.14-1.54,4.33S53.57,78.25,52.73,77.05Z"/><path class="cls-151" d="M52.91,76.92c-.79-1.13-.14-3,1.45-4.07s3.54-1.11,4.33,0,.14,2.95-1.45,4.08S53.7,78.06,52.91,76.92Z"/><path class="cls-152" d="M53.09,76.8C52.35,75.74,53,74,54.45,73s3.32-1,4.06,0,.13,2.77-1.36,3.82S53.83,77.86,53.09,76.8Z"/><path class="cls-153" d="M53.27,76.67c-.69-1-.12-2.58,1.27-3.56s3.09-1,3.79,0,.12,2.58-1.27,3.56S54,77.66,53.27,76.67Z"/><path class="cls-154" d="M53.45,76.54c-.64-.91-.11-2.39,1.18-3.31s2.87-.9,3.52,0,.11,2.4-1.18,3.31S54.09,77.46,53.45,76.54Z"/><path class="cls-155" d="M53.63,76.42c-.59-.85-.1-2.22,1.09-3.06s2.65-.83,3.25,0,.11,2.21-1.09,3.05S54.23,77.27,53.63,76.42Z"/><path class="cls-156" d="M53.81,76.29c-.54-.78-.09-2,1-2.8s2.43-.76,3,0,.09,2-1,2.81S54.36,77.07,53.81,76.29Z"/><path class="cls-157" d="M54,76.16c-.49-.7-.09-1.84.91-2.54s2.21-.7,2.71,0,.08,1.85-.91,2.55S54.49,76.87,54,76.16Z"/><path class="cls-158" d="M54.17,76c-.44-.64-.08-1.66.82-2.29a1.78,1.78,0,0,1,2.44,0c.44.64.07,1.66-.82,2.29A1.79,1.79,0,0,1,54.17,76Z"/><path class="cls-159" d="M54.36,75.91c-.4-.57-.07-1.48.72-2a1.57,1.57,0,0,1,2.16,0c.4.57.08,1.48-.72,2S54.75,76.48,54.36,75.91Z"/><path class="cls-160" d="M54.54,75.79a1.64,1.64,0,1,1,1.89,0A1.38,1.38,0,0,1,54.54,75.79Z"/><path class="cls-161" d="M54.72,75.66c-.3-.43-.06-1.11.54-1.53a1.18,1.18,0,0,1,1.62,0c.3.42,0,1.11-.54,1.52A1.17,1.17,0,0,1,54.72,75.66Z"/><path class="cls-162" d="M54.9,75.53c-.25-.35,0-.92.45-1.27a1,1,0,0,1,1.35,0c.25.35,0,.92-.45,1.27A1,1,0,0,1,54.9,75.53Z"/><path class="cls-163" d="M55.08,75.4a.77.77,0,0,1,.36-1c.4-.28.89-.28,1.08,0s0,.74-.36,1S55.27,75.69,55.08,75.4Z"/><path class="cls-164" d="M55.26,75.28c-.15-.21,0-.56.27-.77a.6.6,0,0,1,.81,0c.15.21,0,.55-.27.76A.59.59,0,0,1,55.26,75.28Z"/><path class="cls-165" d="M55.44,75.15c-.1-.14,0-.37.18-.51s.44-.14.54,0,0,.36-.18.5A.39.39,0,0,1,55.44,75.15Z"/><path class="cls-166" d="M55.62,75c0-.07,0-.18.09-.25a.2.2,0,0,1,.27,0c.05.07,0,.18-.09.25A.2.2,0,0,1,55.62,75Z"/></g><path class="cls-167" d="M80.56,58.59c4.8,20.1,3.63,40.9-10.48,49.48C98.31,93.92,104.78,50.43,81.72,0,80,6,73.55,16.45,65.2,23.24,71.59,32.19,77.39,45.23,80.56,58.59Z"/><path class="cls-168" d="M42.6,112.57h0c-.52,0-2.45-.32-2.56-1.93-4.68-1.79-10.94-7.56-15.06-12.45,4.77-5.26,14-11.34,22.78-15.57,4.36,9.53,8.43,22.08,8,27.29,7.34-2.72,15.55-7.25,20.41-11.25,5.23-17.43-3.37-50.8-29.5-85A205.69,205.69,0,0,0,18.52,27.34C22.27,35.62,29.73,50.55,35.18,60,25.37,65.49,16,73.38,12.08,78.67c-7.17-14-10-29.05-10-39.65A53.25,53.25,0,0,0,.48,47.41C-2.46,72,8.32,99.33,26.67,108.28a51,51,0,0,0,4.86,2A49.08,49.08,0,0,0,42.6,112.57Z"/><path class="cls-169" d="M42.6,112.57h0c-.52,0-2.45-.32-2.56-1.93-4.68-1.79-10.94-7.56-15.06-12.45,4.77-5.26,14-11.34,22.78-15.57,4.36,9.53,8.43,22.08,8,27.29,7.34-2.72,15.55-7.25,20.41-11.25,5.23-17.43-3.37-50.8-29.5-85A205.69,205.69,0,0,0,18.52,27.34C22.27,35.62,29.73,50.55,35.18,60,25.37,65.49,16,73.38,12.08,78.67c-7.17-14-10-29.05-10-39.65A53.25,53.25,0,0,0,.48,47.41C-2.46,72,8.32,99.33,26.67,108.28a51,51,0,0,0,4.86,2A49.08,49.08,0,0,0,42.6,112.57Z"/><path class="cls-170" d="M76.11,98.65c2-6.69,2-15.73-.31-26.27C71.28,81.7,63.67,91.61,53,93.49c-.26.05-.53.08-.8.12,2.3,6.62,3.86,13,3.55,16.29C63,107.18,71.25,102.65,76.11,98.65Z"/><path class="cls-171" d="M168.43,34.09V83.78c0,5.33-8.72,6.11-13.89,6.11a22.93,22.93,0,0,1-6.66-.89V66.81l-11.12.71V83.78c0,5.33-8.69,6.11-13.85,6.11a23,23,0,0,1-6.67-.89V39.3c0-5.36,8.69-6.1,13.86-6.1a22.93,22.93,0,0,1,6.66.89V54.36l11.12-.68V39.3c0-5.36,8.69-6.1,13.89-6.1a22.93,22.93,0,0,1,6.66.89"/><path class="cls-171" d="M200.07,34.09V83.78c0,5.33-8.69,6.11-13.85,6.11a23,23,0,0,1-6.67-.89V39.3c0-5.36,8.69-6.1,13.89-6.1a22.87,22.87,0,0,1,6.63.89"/><path class="cls-171" d="M219.38,48.61l-12.25,1.14a42.07,42.07,0,0,1-.73-8c0-6.32,3.17-7.93,10.82-8.07l35.62-.44a30.9,30.9,0,0,1,.66,6.5c0,6.58-2.34,8.59-8.27,8.59h-5.34V83.78c0,5.33-8.69,6.11-13.85,6.11a22.89,22.89,0,0,1-6.66-.89Z"/><path class="cls-171" d="M301.7,33.27a37.78,37.78,0,0,1,.49,5.75c0,6.28-3,7.67-11.1,7.67H279.82V55l20.31-.88a26.51,26.51,0,0,1,.35,4c0,6.71-2,8.94-10.78,8.94h-9.88V75.8l22.51-1.14a23.52,23.52,0,0,1,.27,3.76c0,7.1-2.16,10.48-9.83,10.48l-33.57,0V41.36c0-6.39,2.69-7.45,10.54-7.59Z"/><path class="cls-172" d="M364,34.09V83.78c0,5.33-8.69,6.11-13.85,6.11a23,23,0,0,1-6.67-.89V39.3c0-5.36,8.69-6.1,13.89-6.1a22.87,22.87,0,0,1,6.63.89"/><path class="cls-172" d="M427.24,44V83.78c0,5.33-8.69,6.11-13.85,6.11a23,23,0,0,1-6.67-.89V49.2c0-3.39-2.53-4.32-5.12-4.32a13.61,13.61,0,0,0-6,1.45V83.78c0,5.33-8.68,6.11-13.85,6.11a22.89,22.89,0,0,1-6.66-.89V39.62c0-5.68,7.92-6.35,13.36-6.35a30,30,0,0,1,5.2.32l.45,4.5c4.75-2.87,12-4.86,19.95-4.86,6.7,0,13.19,3.21,13.19,10.74"/><path class="cls-172" d="M458.87,54.38c0-4.64,5.66-5.22,12.8-4.88,3.35.16,6.11-7.63,6.43-12.82a32.42,32.42,0,0,0,0-3.86,45,45,0,0,0-4.83-.11c-8.27.25-14,4.79-16.67,10.21l-1.43-9.57a28.65,28.65,0,0,0-2.94-.15c-5.19,0-13.88.74-13.88,6.1V89a22.93,22.93,0,0,0,6.66.89c5.17,0,13.85-.78,13.85-6.11Z"/><path class="cls-172" d="M519.23,87.76c-5.48,3-13.08,3.83-18.94,3.83a22.67,22.67,0,0,1-10.54-2.16c-7.81-4.26-10.29-13.88-10.29-27.3,0-11,1.64-20.88,10.33-26.09C495.4,32.91,503,32.2,509,32.2a20.79,20.79,0,0,1,10.26,2.17c8.06,4.15,10.29,13.7,10.29,27.3,0,11-1.64,20.87-10.33,26.09M504.75,44.91a8.43,8.43,0,0,0-4.57,1.32c-.52,1.84-1,7.13-1,15.83,0,13.06.59,16.83,5.1,16.83a8.17,8.17,0,0,0,4.56-1.35c.53-1.85,1-7.14,1-15.8,0-13.1-.52-16.83-5.06-16.83"/><path class="cls-172" d="M311.59,39.7V89.86l-.37.23a26.93,26.93,0,0,0-6.41,5.75,19.48,19.48,0,0,0-4.07,12.73l1.48,0c7.65,0,14.08-1.57,19.12-4.68,7.87-4.84,10.94-10.88,10.94-21.54V33.93a20.63,20.63,0,0,0-6.6-.92C320.41,33,311.59,33.88,311.59,39.7Z"/></g></g></g></svg>